<svg version="1.1" id="Layer_1" xmlns="http://www.w3.org/2000/svg" xmlns:xlink="http://www.w3.org/1999/xlink" x="0px" y="0px"
	 width="100%" viewBox="0 0 2000 1634" enable-background="new 0 0 2000 1634" xml:space="preserve">
<path fill="#000000" opacity="1.000000" stroke="none" 
	d="
M1.000000,1634.000000 
	C1.000000,1089.706665 1.000000,545.413269 1.000000,1.059958 
	C667.577759,1.059958 1334.155518,1.059958 2001.000000,1.059958 
	C2001.000000,545.037598 2001.000000,1089.075195 2000.556396,1633.556396 
	C1333.741821,1634.000000 667.370911,1634.000000 1.000000,1634.000000 
M1331.700073,828.605835 
	C1332.762207,842.054993 1333.927490,855.497437 1334.800171,868.958923 
	C1334.976807,871.686035 1335.902344,872.996399 1338.310303,874.135254 
	C1348.516357,878.962524 1358.399536,884.539917 1368.817383,888.832031 
	C1378.460205,892.804810 1386.627686,898.681030 1394.614258,905.091919 
	C1402.533325,911.448608 1410.590698,917.633423 1418.605347,923.870422 
	C1423.536621,927.707886 1428.501587,931.501831 1433.645996,935.465210 
	C1439.955688,927.340576 1445.578979,919.236389 1452.128906,911.967102 
	C1456.545044,907.065979 1457.384888,902.978394 1453.056396,897.990295 
	C1452.887085,897.795227 1452.990234,897.363953 1452.940063,896.686035 
	C1454.068359,895.854065 1455.339233,894.916931 1456.675171,893.931824 
	C1461.755249,897.911011 1466.474243,901.877258 1471.485718,905.430969 
	C1474.457153,907.538025 1475.091553,909.508667 1472.448730,912.490662 
	C1470.268799,911.858154 1467.952271,910.965759 1465.554443,910.583496 
	C1464.359497,910.392944 1462.478394,910.704956 1461.821411,911.523193 
	C1454.346069,920.835205 1447.047485,930.288879 1439.467651,940.004456 
	C1460.845093,956.643921 1481.898682,973.031494 1503.077759,989.516541 
	C1511.288208,978.910645 1519.102051,968.817078 1526.888428,958.759155 
	C1523.714600,954.770691 1521.002441,950.950562 1517.847168,947.540466 
	C1515.702026,945.222229 1515.587280,943.376526 1516.852783,940.522888 
	C1525.869263,920.192078 1534.683594,899.771606 1543.552246,879.375244 
	C1548.756226,867.406738 1553.941528,855.430176 1559.129639,843.470764 
	C1535.402710,825.052124 1512.065796,806.936279 1488.627686,788.741760 
	C1480.510254,799.140381 1472.736206,809.099243 1464.876221,819.168030 
	C1467.234863,822.685486 1469.504517,826.070190 1471.844360,829.559509 
	C1454.534302,842.214722 1437.508667,854.732239 1420.348633,867.062683 
	C1419.093872,867.964355 1416.663452,868.103088 1415.130127,867.576294 
	C1410.919922,866.129761 1406.896606,864.139404 1402.578369,862.268677 
	C1396.234253,870.342102 1390.014526,878.257141 1383.794800,886.172180 
	C1383.274292,885.809570 1382.753784,885.447021 1382.233276,885.084473 
	C1396.504150,856.025024 1410.775024,826.965576 1425.005737,797.988098 
	C1430.554443,799.048035 1435.578857,800.007935 1440.558472,800.959167 
	C1446.318115,789.217285 1451.920288,777.796204 1457.711548,765.989990 
	C1435.041626,754.890930 1412.772095,743.987793 1390.293823,732.982544 
	C1385.375366,742.816956 1380.641724,752.281677 1375.908203,761.746399 
	C1374.592651,750.351685 1373.894409,739.375793 1373.499512,728.388977 
	C1373.387451,725.272522 1372.146973,723.827148 1369.408569,722.517578 
	C1354.734619,715.499817 1340.179077,708.234497 1325.574585,701.071289 
	C1321.307007,698.978027 1317.012939,696.939026 1312.567749,694.796509 
	C1307.182861,705.771790 1301.911133,716.291931 1296.940552,726.952637 
	C1296.364502,728.188171 1296.908325,730.724182 1297.884888,731.758179 
	C1300.714233,734.753784 1304.028809,737.291138 1307.262085,740.103149 
	C1298.192139,758.510132 1289.298828,776.675476 1280.199097,794.736816 
	C1279.650757,795.825073 1277.381592,796.754395 1276.042603,796.604065 
	C1271.954956,796.145142 1267.930664,795.122070 1263.672363,794.277039 
	C1257.945190,805.942200 1252.350708,817.337158 1246.619141,829.011108 
	C1269.203735,840.096863 1291.352295,850.968567 1313.855347,862.014282 
	C1318.047119,853.465698 1322.068481,845.106995 1326.246338,836.827332 
	C1327.771606,833.804504 1329.668823,830.969299 1331.337524,828.010376 
	C1331.337524,828.010376 1331.208618,828.048340 1331.700073,828.605835 
M1148.888672,654.350952 
	C1143.540283,674.548279 1138.191895,694.745667 1132.760376,715.256836 
	C1145.328979,718.555908 1157.484253,721.746521 1169.830078,724.987122 
	C1173.356079,717.092834 1176.781738,709.422974 1180.276978,701.597351 
	C1182.632935,702.244385 1184.535889,702.766968 1186.706055,703.362976 
	C1181.159912,724.322144 1175.653809,745.129272 1170.240723,765.585449 
	C1164.865723,765.585449 1160.203735,765.422974 1155.567139,765.695312 
	C1154.347534,765.766968 1152.441895,766.969299 1152.147583,768.016663 
	C1148.920410,779.496887 1145.950073,791.049316 1142.797363,803.009705 
	C1170.326416,810.282349 1197.543823,817.472656 1225.118286,824.757324 
	C1228.496338,811.996155 1231.755127,799.685486 1235.034058,787.299011 
	C1230.971436,785.116943 1227.294556,782.808228 1223.350342,781.126953 
	C1220.072388,779.729675 1219.455078,778.049866 1220.428589,774.670410 
	C1223.462891,764.136719 1226.135254,753.498779 1228.940796,742.899292 
	C1231.271484,734.092834 1233.591675,725.283630 1235.967407,716.283142 
	C1238.408447,716.974060 1240.379028,717.531860 1242.334839,718.085449 
	C1241.469360,726.962524 1240.665039,735.210999 1239.852173,743.547852 
	C1252.431274,746.847961 1264.555054,750.028564 1276.748047,753.227295 
	C1282.524902,731.295410 1288.143066,709.966064 1293.810547,688.449280 
	C1292.922607,688.147949 1292.330933,687.908142 1291.718750,687.745117 
	C1275.023926,683.298889 1258.330566,678.847595 1241.629883,674.423706 
	C1212.402954,666.681824 1183.171021,658.958862 1153.942505,651.223022 
	C1151.609497,650.605530 1149.258301,649.888977 1148.888672,654.350952 
M742.166870,732.160583 
	C735.098938,715.924316 728.031067,699.688049 720.863464,683.222839 
	C675.126892,703.262451 629.909180,723.074768 584.426270,743.003235 
	C593.578613,763.830750 602.477295,784.081055 611.453796,804.508362 
	C623.433289,799.309570 634.810059,794.372375 646.545288,789.279602 
	C644.391174,780.897522 642.295959,772.744690 640.157593,764.423889 
	C642.184753,763.513733 644.097046,762.655151 646.252319,761.687500 
	C654.991882,781.673889 663.545654,801.235413 672.172791,820.964539 
	C667.483154,824.527222 663.008667,827.926514 658.264587,831.530518 
	C663.474060,843.475586 668.609985,855.251892 673.850098,867.267151 
	C700.102051,855.735413 725.862305,844.419678 751.865784,832.997131 
	C746.540405,820.895508 741.431396,809.285461 736.276733,797.571777 
	C731.104431,798.493347 726.384888,799.494812 721.613831,800.068115 
	C720.462402,800.206421 718.442505,799.240967 718.000610,798.254883 
	C709.536194,779.366333 701.247925,760.398804 692.832642,741.241455 
	C695.050842,740.306763 696.967163,739.499329 698.942749,738.666870 
	C703.789978,746.137756 708.360718,753.182434 712.948853,760.253906 
	C724.815430,755.059631 736.168213,750.090210 747.780640,745.007202 
	C745.911804,740.676697 744.219666,736.755798 742.166870,732.160583 
M1005.511353,695.846497 
	C1001.047913,708.168396 995.758545,720.269897 992.391907,732.884583 
	C989.866821,742.346191 984.964172,746.814636 975.560913,746.929565 
	C972.205688,746.970581 970.959778,748.493164 970.993530,751.861145 
	C971.033447,755.844299 970.498962,759.831604 970.255127,763.819580 
	C969.803101,771.212341 969.381348,778.607056 968.931213,786.268433 
	C992.255188,787.869019 1014.985046,789.428894 1038.190918,791.021423 
	C1038.833252,781.001465 1038.941772,771.167175 1040.264038,761.498779 
	C1041.169067,754.882080 1039.858398,750.684021 1033.113403,748.973022 
	C1032.824463,748.899719 1032.601562,748.566101 1032.225098,748.251038 
	C1032.711792,746.925049 1033.215820,745.552124 1033.842163,743.845886 
	C1040.255249,744.241882 1046.551880,744.878540 1052.853027,744.925537 
	C1056.553589,744.953125 1057.735596,746.445923 1057.569092,750.760803 
	C1046.370239,749.315796 1047.736328,757.466980 1047.313599,764.328491 
	C1046.755493,773.386169 1046.255005,782.447449 1045.727783,791.540588 
	C1072.879517,793.303528 1099.261841,795.016479 1125.937744,796.748535 
	C1126.797241,783.695068 1127.635010,770.969727 1128.488525,758.005615 
	C1123.721191,756.561829 1119.332031,755.038452 1114.839355,753.937500 
	C1111.641357,753.153809 1110.469604,751.475769 1109.875488,748.227234 
	C1103.833618,715.198059 1097.493774,682.223328 1091.506348,649.184570 
	C1090.786865,645.214722 1089.311768,644.195496 1085.499634,643.981506 
	C1066.716675,642.927002 1047.953857,641.519409 1029.180908,640.283081 
	C1019.953186,639.675293 1010.718811,639.168701 1001.440796,638.613525 
	C1000.725769,649.130493 1000.150391,658.934448 999.365784,668.721619 
	C998.695862,677.076477 998.592285,677.060669 1006.629456,680.144653 
	C1007.828735,680.604797 1008.987732,681.169983 1010.473572,681.821777 
	C1008.870789,686.407288 1007.347229,690.765991 1005.511353,695.846497 
M903.479919,747.983582 
	C915.525330,746.370300 927.586426,744.861145 939.601013,743.044067 
	C941.666748,742.731567 943.965088,741.525269 945.421448,740.020874 
	C953.185303,732.000610 960.604736,723.646179 968.393921,715.651550 
	C970.759644,713.223389 971.383423,710.839111 970.956055,707.661621 
	C969.180603,694.462158 967.648071,681.229004 965.735474,668.050415 
	C965.473511,666.245361 963.937195,664.133606 962.373047,663.089417 
	C952.555298,656.535034 942.606506,650.172363 932.580566,643.940002 
	C931.073364,643.003052 928.878662,642.571472 927.099060,642.771240 
	C915.684326,644.052429 904.294006,645.553833 892.900757,647.022766 
	C869.318115,650.063477 845.738770,653.129211 821.650818,656.250366 
	C823.325684,669.250549 824.971069,682.022339 826.613953,694.773926 
	C830.847107,695.294189 834.464905,695.932312 838.106445,696.129272 
	C841.425354,696.308716 842.553467,697.861267 842.905823,701.041138 
	C844.042419,711.298645 845.487793,721.521606 846.771667,731.763184 
	C847.966125,741.290649 849.106018,750.824829 850.265442,760.319397 
	C845.162292,762.421387 840.585815,764.306396 835.733704,766.304993 
	C837.375793,779.112488 838.999573,791.777466 840.664978,804.766968 
	C867.753906,801.236023 894.386963,797.764465 921.348938,794.250061 
	C919.660950,781.095703 918.059875,768.618896 916.453369,756.099792 
	C910.981934,755.301086 905.939331,754.564941 899.260071,753.589905 
	C900.685730,751.162903 901.597595,749.610535 903.479919,747.983582 
M556.673523,861.919678 
	C560.656616,868.191284 564.639648,874.462891 568.741577,880.921631 
	C565.115234,884.908203 561.665894,888.700195 558.158569,892.555908 
	C565.137024,903.480896 572.006287,914.234985 579.046326,925.256348 
	C601.973816,910.580811 624.580994,896.110352 647.401489,881.503296 
	C640.344788,870.447449 633.486023,859.701721 626.521667,848.790527 
	C622.984070,849.914795 619.569580,850.698547 616.418152,852.081543 
	C612.882935,853.632935 610.974426,852.926636 608.864746,849.529541 
	C599.836304,834.991638 590.453003,820.674072 581.209351,806.269653 
	C579.809814,804.088684 578.464172,801.873169 577.127686,799.728271 
	C580.186462,796.437622 583.041260,793.625305 585.543396,790.528015 
	C586.370483,789.504211 587.049500,787.275818 586.505615,786.395020 
	C580.067688,775.968262 573.385071,765.692566 566.677734,755.238525 
	C543.660400,769.981140 521.058350,784.457825 498.338959,799.009644 
	C505.571289,810.354248 512.430603,821.113770 519.342896,831.956360 
	C524.463562,830.340088 529.332886,828.803040 534.438599,827.191406 
	C541.762939,838.670654 548.996582,850.007874 556.673523,861.919678 
M495.030273,840.437561 
	C488.461426,832.540161 481.892609,824.642822 475.111389,816.490112 
	C454.181641,833.978821 433.577820,851.195190 412.875061,868.494263 
	C420.775848,877.994507 428.257812,887.147400 435.997009,896.077332 
	C436.857056,897.069702 439.419189,897.459290 440.784027,896.976074 
	C444.650177,895.607483 448.304504,893.640686 452.163910,891.853149 
	C465.891754,908.253296 479.433167,924.430725 493.054321,940.703369 
	C490.004913,945.108276 487.085938,949.324768 484.000336,953.781982 
	C492.267273,963.656372 500.536163,973.533020 508.877228,983.495911 
	C529.895264,965.851746 550.388245,948.648315 571.111938,931.251282 
	C562.717346,921.214905 554.531433,911.427979 546.262756,901.542114 
	C541.302673,903.823486 536.675415,905.951843 531.920776,908.138733 
	C518.198730,891.748535 504.661987,875.579651 491.044067,859.313782 
	C494.116547,854.950562 497.065338,850.762939 500.058868,846.511841 
	C498.453613,844.571350 496.970398,842.778503 495.030273,840.437561 
z"/>
<path fill="#171717" opacity="1.000000" stroke="none" 
	d="
M1.000000,1634.500000 
	C667.370911,1634.000000 1333.741821,1634.000000 2000.556396,1634.000000 
	C2000.833374,1634.333374 2000.684204,1634.943848 2000.497192,1634.955566 
	C1999.169067,1635.038940 1997.833374,1635.000000 1996.500000,1635.000000 
	C1331.333374,1635.000000 666.166687,1635.000000 1.000000,1634.500000 
z"/>
<path fill="#F9F9F9" opacity="1.000000" stroke="none" 
	d="
M1331.396362,828.048584 
	C1329.668823,830.969299 1327.771606,833.804504 1326.246338,836.827332 
	C1322.068481,845.106995 1318.047119,853.465698 1313.855347,862.014282 
	C1291.352295,850.968567 1269.203735,840.096863 1246.619141,829.011108 
	C1252.350708,817.337158 1257.945190,805.942200 1263.672363,794.277039 
	C1267.930664,795.122070 1271.954956,796.145142 1276.042603,796.604065 
	C1277.381592,796.754395 1279.650757,795.825073 1280.199097,794.736816 
	C1289.298828,776.675476 1298.192139,758.510132 1307.262085,740.103149 
	C1304.028809,737.291138 1300.714233,734.753784 1297.884888,731.758179 
	C1296.908325,730.724182 1296.364502,728.188171 1296.940552,726.952637 
	C1301.911133,716.291931 1307.182861,705.771790 1312.567749,694.796509 
	C1317.012939,696.939026 1321.307007,698.978027 1325.574585,701.071289 
	C1340.179077,708.234497 1354.734619,715.499817 1369.408569,722.517578 
	C1372.146973,723.827148 1373.387451,725.272522 1373.499512,728.388977 
	C1373.894409,739.375793 1374.592651,750.351685 1375.908203,761.746399 
	C1380.641724,752.281677 1385.375366,742.816956 1390.293823,732.982544 
	C1412.772095,743.987793 1435.041626,754.890930 1457.711548,765.989990 
	C1451.920288,777.796204 1446.318115,789.217285 1440.558472,800.959167 
	C1435.578857,800.007935 1430.554443,799.048035 1425.005737,797.988098 
	C1410.775024,826.965576 1396.504150,856.025024 1382.233276,885.084473 
	C1382.753784,885.447021 1383.274292,885.809570 1383.794800,886.172180 
	C1390.014526,878.257141 1396.234253,870.342102 1402.578369,862.268677 
	C1406.896606,864.139404 1410.919922,866.129761 1415.130127,867.576294 
	C1416.663452,868.103088 1419.093872,867.964355 1420.348633,867.062683 
	C1437.508667,854.732239 1454.534302,842.214722 1471.844360,829.559509 
	C1469.504517,826.070190 1467.234863,822.685486 1464.876221,819.168030 
	C1472.736206,809.099243 1480.510254,799.140381 1488.627686,788.741760 
	C1512.065796,806.936279 1535.402710,825.052124 1559.129639,843.470764 
	C1553.941528,855.430176 1548.756226,867.406738 1543.552246,879.375244 
	C1534.683594,899.771606 1525.869263,920.192078 1516.852783,940.522888 
	C1515.587280,943.376526 1515.702026,945.222229 1517.847168,947.540466 
	C1521.002441,950.950562 1523.714600,954.770691 1526.888428,958.759155 
	C1519.102051,968.817078 1511.288208,978.910645 1503.077759,989.516541 
	C1481.898682,973.031494 1460.845093,956.643921 1439.467651,940.004456 
	C1447.047485,930.288879 1454.346069,920.835205 1461.821411,911.523193 
	C1462.478394,910.704956 1464.359497,910.392944 1465.554443,910.583496 
	C1467.952271,910.965759 1470.268799,911.858154 1472.448730,912.490662 
	C1475.091553,909.508667 1474.457153,907.538025 1471.485718,905.430969 
	C1466.474243,901.877258 1461.755249,897.911011 1456.675171,893.931824 
	C1455.339233,894.916931 1454.068359,895.854065 1452.940063,896.686035 
	C1452.990234,897.363953 1452.887085,897.795227 1453.056396,897.990295 
	C1457.384888,902.978394 1456.545044,907.065979 1452.128906,911.967102 
	C1445.578979,919.236389 1439.955688,927.340576 1433.645996,935.465210 
	C1428.501587,931.501831 1423.536621,927.707886 1418.605347,923.870422 
	C1410.590698,917.633423 1402.533325,911.448608 1394.614258,905.091919 
	C1386.627686,898.681030 1378.460205,892.804810 1368.817383,888.832031 
	C1358.399536,884.539917 1348.516357,878.962524 1338.310303,874.135254 
	C1335.902344,872.996399 1334.976807,871.686035 1334.800171,868.958923 
	C1333.927490,855.497437 1332.762207,842.054993 1331.648438,827.953491 
	C1330.814819,817.619263 1330.032837,807.937500 1329.250854,798.255676 
	C1325.636108,803.563904 1322.834351,808.798157 1320.520996,814.239929 
	C1319.993286,815.481140 1320.638916,817.917236 1321.628906,818.977661 
	C1324.653198,822.217346 1328.108643,825.054688 1331.396362,828.048584 
M1361.557861,729.198486 
	C1346.707397,721.952393 1331.857056,714.706238 1316.846069,707.381775 
	C1313.410645,714.355591 1310.266357,720.738342 1307.036011,727.295959 
	C1310.967896,730.772522 1314.814331,734.173462 1318.923218,737.806519 
	C1307.430054,761.173584 1295.955322,784.503052 1284.420776,807.954163 
	C1279.129028,806.953064 1274.111816,806.003906 1268.931763,805.023926 
	C1265.672241,811.687561 1262.513306,818.145630 1259.246460,824.824036 
	C1276.198486,833.109497 1292.740601,841.194580 1309.569092,849.419678 
	C1312.866699,842.673706 1316.044312,836.172913 1319.266235,829.581482 
	C1316.113403,826.841553 1313.349365,824.179077 1310.310303,821.880066 
	C1307.834717,820.007263 1307.736206,818.323853 1309.099976,815.608154 
	C1317.298096,799.284607 1325.297729,782.861328 1333.378906,766.478943 
	C1333.995483,765.229126 1334.729492,764.037292 1335.838135,762.048706 
	C1338.560791,796.215820 1341.184692,829.406311 1343.915161,862.588074 
	C1344.045044,864.164917 1344.693970,866.482361 1345.822266,867.069946 
	C1354.988892,871.843140 1364.327637,876.285583 1373.801758,880.920593 
	C1389.284546,849.442871 1404.514038,818.480042 1419.859741,787.281006 
	C1424.138672,788.135559 1428.161011,789.167847 1432.247681,789.624146 
	C1433.578613,789.772766 1435.772339,788.799316 1436.382202,787.687012 
	C1439.469482,782.056091 1442.165161,776.210510 1445.120728,770.190552 
	C1428.171875,761.936890 1411.486084,753.811279 1394.566772,745.571899 
	C1391.190674,752.431213 1387.990967,758.932556 1384.740967,765.535767 
	C1388.840820,769.076538 1392.695557,772.405518 1396.636719,775.809204 
	C1387.600098,794.184937 1378.786987,812.106201 1369.973877,830.027527 
	C1368.986084,828.504211 1369.042358,827.239136 1368.977783,825.980286 
	C1367.406982,795.366882 1365.848633,764.752808 1364.166016,734.145569 
	C1364.082031,732.616150 1362.901123,731.147034 1361.557861,729.198486 
M1415.618164,877.970703 
	C1412.281738,876.574768 1408.945435,875.178833 1405.444214,873.713928 
	C1400.839844,879.638489 1396.411011,885.337158 1391.915771,891.121216 
	C1405.473755,901.684021 1418.560913,911.879944 1431.892212,922.266235 
	C1434.367065,919.136902 1436.274902,915.905334 1438.939331,913.518066 
	C1445.427979,907.704529 1446.246582,901.733032 1440.580444,894.998657 
	C1440.445068,894.837769 1440.591187,894.440247 1440.622314,893.836304 
	C1445.784912,890.001160 1451.109253,886.045959 1456.568726,881.990295 
	C1466.451172,889.707336 1476.255737,897.363464 1486.095215,905.046936 
	C1483.410278,911.658752 1480.886597,917.873657 1478.312012,924.213989 
	C1474.946167,923.214600 1472.134644,922.150696 1469.226074,921.619141 
	C1467.902466,921.377380 1465.808228,921.703003 1465.053345,922.602112 
	C1460.794556,927.674927 1456.836304,933.000183 1452.667969,938.378418 
	C1469.045776,951.129761 1485.151001,963.668884 1501.394165,976.315308 
	C1506.111328,970.225830 1510.546387,964.500427 1514.925171,958.847717 
	C1512.237061,955.547363 1510.088989,952.555969 1507.571655,949.916748 
	C1504.964844,947.183655 1504.575928,944.764282 1506.222534,941.143616 
	C1513.229980,925.733765 1519.870605,910.156799 1526.622803,894.631165 
	C1533.563232,878.672241 1540.477783,862.701965 1547.521118,846.466125 
	C1528.364014,831.549255 1509.412842,816.792786 1490.310181,801.918274 
	C1485.547363,808.014404 1481.063965,813.752808 1476.535400,819.549133 
	C1479.383057,823.713379 1482.063477,827.633179 1484.902100,831.784363 
	C1463.432861,847.405273 1442.210205,862.892761 1420.875000,878.223816 
	C1419.884277,878.935730 1417.888672,878.249146 1415.618164,877.970703 
M1379.656250,789.218018 
	C1381.388550,785.646484 1383.120728,782.075012 1385.020996,778.157227 
	C1382.160400,775.672546 1379.300293,773.188293 1375.551636,769.932251 
	C1376.010742,778.539307 1376.391357,785.674988 1376.771851,792.810608 
	C1377.099854,792.837097 1377.427734,792.863647 1377.755737,792.890137 
	C1378.251221,791.882690 1378.746826,790.875244 1379.656250,789.218018 
M1380.263672,888.326660 
	C1380.765015,888.446472 1381.266357,888.566284 1381.767700,888.686096 
	C1381.468262,888.396179 1381.168823,888.106262 1380.263672,888.326660 
M1382.000000,886.500000 
	C1382.199951,886.633301 1382.400024,886.766663 1382.599976,886.900024 
	C1382.566650,886.600037 1382.533325,886.299988 1382.000000,886.500000 
z"/>
<path fill="#F8F8F8" opacity="1.000000" stroke="none" 
	d="
M1148.950073,653.970337 
	C1149.258301,649.888977 1151.609497,650.605530 1153.942505,651.223022 
	C1183.171021,658.958862 1212.402954,666.681824 1241.629883,674.423706 
	C1258.330566,678.847595 1275.023926,683.298889 1291.718750,687.745117 
	C1292.330933,687.908142 1292.922607,688.147949 1293.810547,688.449280 
	C1288.143066,709.966064 1282.524902,731.295410 1276.748047,753.227295 
	C1264.555054,750.028564 1252.431274,746.847961 1239.852173,743.547852 
	C1240.665039,735.210999 1241.469360,726.962524 1242.334839,718.085449 
	C1240.379028,717.531860 1238.408447,716.974060 1235.967407,716.283142 
	C1233.591675,725.283630 1231.271484,734.092834 1228.940796,742.899292 
	C1226.135254,753.498779 1223.462891,764.136719 1220.428589,774.670410 
	C1219.455078,778.049866 1220.072388,779.729675 1223.350342,781.126953 
	C1227.294556,782.808228 1230.971436,785.116943 1235.034058,787.299011 
	C1231.755127,799.685486 1228.496338,811.996155 1225.118286,824.757324 
	C1197.543823,817.472656 1170.326416,810.282349 1142.797363,803.009705 
	C1145.950073,791.049316 1148.920410,779.496887 1152.147583,768.016663 
	C1152.441895,766.969299 1154.347534,765.766968 1155.567139,765.695312 
	C1160.203735,765.422974 1164.865723,765.585449 1170.240723,765.585449 
	C1175.653809,745.129272 1181.159912,724.322144 1186.706055,703.362976 
	C1184.535889,702.766968 1182.632935,702.244385 1180.276978,701.597351 
	C1176.781738,709.422974 1173.356079,717.092834 1169.830078,724.987122 
	C1157.484253,721.746521 1145.328979,718.555908 1132.760376,715.256836 
	C1138.191895,694.745667 1143.540283,674.548279 1148.950073,653.970337 
M1180.442139,667.981567 
	C1172.606079,665.929016 1164.770020,663.876404 1156.649048,661.749207 
	C1152.488281,677.568176 1148.440186,692.958496 1144.317017,708.634644 
	C1151.131958,710.437805 1157.681396,712.170776 1164.514282,713.978699 
	C1167.507202,707.167419 1170.301636,700.436096 1173.480591,693.891541 
	C1174.105713,692.604553 1176.422729,691.053223 1177.605469,691.302551 
	C1184.396851,692.734558 1191.081665,694.672302 1197.683105,696.407166 
	C1197.803955,697.006897 1197.989746,697.357788 1197.915405,697.640198 
	C1191.310913,722.700867 1184.725342,747.766846 1177.941162,772.778992 
	C1177.625732,773.941833 1175.581055,775.271973 1174.236328,775.398071 
	C1170.437134,775.753967 1166.573608,775.370605 1162.756470,775.613098 
	C1161.546021,775.689941 1159.625122,776.589233 1159.354004,777.504395 
	C1157.526978,783.674133 1156.056152,789.949341 1154.400391,796.464111 
	C1175.976196,802.128540 1197.106812,807.676025 1218.460571,813.282166 
	C1220.404297,805.881531 1222.203247,799.031799 1224.025269,792.093933 
	C1218.689453,789.207092 1213.625610,786.467346 1208.404663,783.642639 
	C1215.404663,757.134460 1222.300537,731.020874 1229.243774,704.728210 
	C1237.255005,706.808533 1244.766357,708.759033 1252.505615,710.768677 
	C1251.662598,719.548950 1250.856079,727.949341 1250.033325,736.519104 
	C1256.697876,738.272766 1263.087769,739.954163 1269.971924,741.765625 
	C1274.084473,726.183899 1278.177490,710.676331 1282.355469,694.847046 
	C1248.329468,685.854248 1214.790527,676.990173 1180.442139,667.981567 
z"/>
<path fill="#F9F9F9" opacity="1.000000" stroke="none" 
	d="
M742.347229,732.497681 
	C744.219666,736.755798 745.911804,740.676697 747.780640,745.007202 
	C736.168213,750.090210 724.815430,755.059631 712.948853,760.253906 
	C708.360718,753.182434 703.789978,746.137756 698.942749,738.666870 
	C696.967163,739.499329 695.050842,740.306763 692.832642,741.241455 
	C701.247925,760.398804 709.536194,779.366333 718.000610,798.254883 
	C718.442505,799.240967 720.462402,800.206421 721.613831,800.068115 
	C726.384888,799.494812 731.104431,798.493347 736.276733,797.571777 
	C741.431396,809.285461 746.540405,820.895508 751.865784,832.997131 
	C725.862305,844.419678 700.102051,855.735413 673.850098,867.267151 
	C668.609985,855.251892 663.474060,843.475586 658.264587,831.530518 
	C663.008667,827.926514 667.483154,824.527222 672.172791,820.964539 
	C663.545654,801.235413 654.991882,781.673889 646.252319,761.687500 
	C644.097046,762.655151 642.184753,763.513733 640.157593,764.423889 
	C642.295959,772.744690 644.391174,780.897522 646.545288,789.279602 
	C634.810059,794.372375 623.433289,799.309570 611.453796,804.508362 
	C602.477295,784.081055 593.578613,763.830750 584.426270,743.003235 
	C629.909180,723.074768 675.126892,703.262451 720.863464,683.222839 
	C728.031067,699.688049 735.098938,715.924316 742.347229,732.497681 
M672.220093,840.220886 
	C674.361694,845.000000 676.503357,849.779114 678.759949,854.814697 
	C699.228699,845.811707 719.213562,837.021606 739.426697,828.131042 
	C736.328247,821.110291 733.467834,814.628906 730.556824,808.032959 
	C724.628662,809.110352 718.952026,810.142090 713.198303,811.187805 
	C702.220032,786.127563 691.392517,761.411499 680.478210,736.497314 
	C688.137634,733.123657 695.240662,729.995056 702.568359,726.767456 
	C707.263977,734.043823 711.836365,741.129211 716.512878,748.375977 
	C722.976624,745.530273 729.124451,742.823669 735.415100,740.054199 
	C728.804932,724.931152 722.446838,710.384949 716.004456,695.645813 
	C676.026855,713.168518 636.549255,730.471985 596.860657,747.868042 
	C603.457153,762.906616 609.840637,777.459412 616.280640,792.141052 
	C622.789368,789.304016 628.993896,786.599548 635.388062,783.812500 
	C633.199707,775.324219 631.105774,767.201904 628.982971,758.967773 
	C636.463379,755.682129 643.555603,752.566956 651.075928,749.263794 
	C662.099670,774.503601 672.954590,799.357056 683.808655,824.208496 
	C681.098938,826.249329 678.857422,827.960205 676.591370,829.637878 
	C674.355408,831.293152 672.094604,832.914917 669.823914,834.566589 
	C670.659607,836.479980 671.320496,837.993103 672.220093,840.220886 
z"/>
<path fill="#F9F9F9" opacity="1.000000" stroke="none" 
	d="
M1005.667542,695.485596 
	C1007.347229,690.765991 1008.870789,686.407288 1010.473572,681.821777 
	C1008.987732,681.169983 1007.828735,680.604797 1006.629456,680.144653 
	C998.592285,677.060669 998.695862,677.076477 999.365784,668.721619 
	C1000.150391,658.934448 1000.725769,649.130493 1001.440796,638.613525 
	C1010.718811,639.168701 1019.953186,639.675293 1029.180908,640.283081 
	C1047.953857,641.519409 1066.716675,642.927002 1085.499634,643.981506 
	C1089.311768,644.195496 1090.786865,645.214722 1091.506348,649.184570 
	C1097.493774,682.223328 1103.833618,715.198059 1109.875488,748.227234 
	C1110.469604,751.475769 1111.641357,753.153809 1114.839355,753.937500 
	C1119.332031,755.038452 1123.721191,756.561829 1128.488525,758.005615 
	C1127.635010,770.969727 1126.797241,783.695068 1125.937744,796.748535 
	C1099.261841,795.016479 1072.879517,793.303528 1045.727783,791.540588 
	C1046.255005,782.447449 1046.755493,773.386169 1047.313599,764.328491 
	C1047.736328,757.466980 1046.370239,749.315796 1057.569092,750.760803 
	C1057.735596,746.445923 1056.553589,744.953125 1052.853027,744.925537 
	C1046.551880,744.878540 1040.255249,744.241882 1033.842163,743.845886 
	C1033.215820,745.552124 1032.711792,746.925049 1032.225098,748.251038 
	C1032.601562,748.566101 1032.824463,748.899719 1033.113403,748.973022 
	C1039.858398,750.684021 1041.169067,754.882080 1040.264038,761.498779 
	C1038.941772,771.167175 1038.833252,781.001465 1038.190918,791.021423 
	C1014.985046,789.428894 992.255188,787.869019 968.931213,786.268433 
	C969.381348,778.607056 969.803101,771.212341 970.255127,763.819580 
	C970.498962,759.831604 971.033447,755.844299 970.993530,751.861145 
	C970.959778,748.493164 972.205688,746.970581 975.560913,746.929565 
	C984.964172,746.814636 989.866821,742.346191 992.391907,732.884583 
	C995.758545,720.269897 1001.047913,708.168396 1005.667542,695.485596 
M1015.603088,779.996033 
	C1020.059448,780.292786 1024.515747,780.589600 1029.428955,780.916748 
	C1029.669312,776.826904 1029.293823,772.888062 1030.234131,769.293335 
	C1032.431885,760.890076 1029.572998,755.848694 1021.338318,753.579712 
	C1021.136230,753.523987 1021.056580,753.023560 1020.759277,752.386597 
	C1022.842957,746.415527 1025.012817,740.197144 1027.262695,733.749573 
	C1039.769531,734.593323 1052.017700,735.419617 1064.512695,736.262573 
	C1065.999634,743.068176 1067.437988,749.651489 1068.920044,756.434692 
	C1064.760742,757.817871 1060.901855,759.101196 1057.077026,760.373230 
	C1056.608521,767.979126 1056.163452,775.207642 1055.709595,782.577087 
	C1076.407471,783.947144 1096.464355,785.274841 1117.017456,786.635376 
	C1117.296875,783.760620 1117.655518,780.986633 1117.816406,778.201294 
	C1118.065186,773.896912 1119.868896,768.377808 1117.888794,765.605347 
	C1115.785156,762.659668 1109.936279,762.541809 1105.934082,760.723877 
	C1104.321411,759.991333 1102.412598,758.193176 1102.094727,756.591003 
	C1098.536377,738.658081 1095.276978,720.666016 1091.907837,702.695312 
	C1088.824585,686.250305 1085.705566,669.811890 1082.578735,653.245361 
	C1058.269531,651.695435 1034.298096,650.167053 1010.241699,648.633179 
	C1009.785339,655.355286 1009.579346,661.176208 1008.925415,666.946228 
	C1008.550720,670.252441 1009.781616,671.714661 1012.794312,672.620117 
	C1016.054321,673.600037 1019.174866,675.043762 1022.521362,676.349548 
	C1014.674866,698.107056 1006.557495,719.176392 999.593628,740.620361 
	C996.734436,749.424866 993.142578,755.341614 983.075928,755.147278 
	C982.106567,755.128601 980.333191,756.657959 980.243835,757.593811 
	C979.616272,764.167603 979.332764,770.774170 978.928101,777.558105 
	C991.140381,778.380737 1002.901489,779.173035 1015.603088,779.996033 
z"/>
<path fill="#F8F8F8" opacity="1.000000" stroke="none" 
	d="
M902.994690,748.020874 
	C901.597595,749.610535 900.685730,751.162903 899.260071,753.589905 
	C905.939331,754.564941 910.981934,755.301086 916.453369,756.099792 
	C918.059875,768.618896 919.660950,781.095703 921.348938,794.250061 
	C894.386963,797.764465 867.753906,801.236023 840.664978,804.766968 
	C838.999573,791.777466 837.375793,779.112488 835.733704,766.304993 
	C840.585815,764.306396 845.162292,762.421387 850.265442,760.319397 
	C849.106018,750.824829 847.966125,741.290649 846.771667,731.763184 
	C845.487793,721.521606 844.042419,711.298645 842.905823,701.041138 
	C842.553467,697.861267 841.425354,696.308716 838.106445,696.129272 
	C834.464905,695.932312 830.847107,695.294189 826.613953,694.773926 
	C824.971069,682.022339 823.325684,669.250549 821.650818,656.250366 
	C845.738770,653.129211 869.318115,650.063477 892.900757,647.022766 
	C904.294006,645.553833 915.684326,644.052429 927.099060,642.771240 
	C928.878662,642.571472 931.073364,643.003052 932.580566,643.940002 
	C942.606506,650.172363 952.555298,656.535034 962.373047,663.089417 
	C963.937195,664.133606 965.473511,666.245361 965.735474,668.050415 
	C967.648071,681.229004 969.180603,694.462158 970.956055,707.661621 
	C971.383423,710.839111 970.759644,713.223389 968.393921,715.651550 
	C960.604736,723.646179 953.185303,732.000610 945.421448,740.020874 
	C943.965088,741.525269 941.666748,742.731567 939.601013,743.044067 
	C927.586426,744.861145 915.525330,746.370300 902.994690,748.020874 
M909.012573,786.237976 
	C909.559692,785.622437 910.636292,784.945740 910.573242,784.400696 
	C909.812378,777.816162 908.883118,771.251099 907.983276,764.573669 
	C902.632629,763.744324 897.577454,762.960815 892.348938,762.150391 
	C891.442810,754.689819 890.572266,747.522705 889.683167,740.202393 
	C904.197083,738.368469 918.033142,736.540894 931.892822,734.914856 
	C936.333740,734.393738 939.918030,733.108643 942.947632,729.394470 
	C947.884033,723.342712 953.618469,717.947083 958.682495,711.990967 
	C960.080017,710.347168 961.119934,707.616943 960.914368,705.523560 
	C959.842102,694.602661 958.412476,683.712158 956.831970,672.851196 
	C956.618652,671.385437 955.107971,669.761658 953.762390,668.864868 
	C946.158569,663.797485 938.505920,658.789307 930.670532,654.093689 
	C928.744690,652.939636 925.997131,652.377991 923.759094,652.645752 
	C904.272461,654.976807 884.814087,657.544861 865.351013,660.071411 
	C854.371887,661.496643 843.399719,662.976257 832.167786,664.465393 
	C833.191345,672.111450 834.151306,679.282715 835.114563,686.478577 
	C839.421387,687.032043 843.192261,687.739014 846.989380,687.933044 
	C849.929382,688.083191 850.805786,689.220581 851.147888,692.118042 
	C852.864136,706.652405 854.902222,721.148499 856.761169,735.666504 
	C858.064758,745.846985 859.262268,756.041016 860.505310,766.214172 
	C855.343079,768.367676 850.658203,770.322021 845.975647,772.275391 
	C846.963257,779.731384 847.894470,786.761658 848.870911,794.133789 
	C868.896545,791.522522 888.489746,788.967590 909.012573,786.237976 
z"/>
<path fill="#F9F9F9" opacity="1.000000" stroke="none" 
	d="
M556.451904,861.632324 
	C548.996582,850.007874 541.762939,838.670654 534.438599,827.191406 
	C529.332886,828.803040 524.463562,830.340088 519.342896,831.956360 
	C512.430603,821.113770 505.571289,810.354248 498.338959,799.009644 
	C521.058350,784.457825 543.660400,769.981140 566.677734,755.238525 
	C573.385071,765.692566 580.067688,775.968262 586.505615,786.395020 
	C587.049500,787.275818 586.370483,789.504211 585.543396,790.528015 
	C583.041260,793.625305 580.186462,796.437622 577.127686,799.728271 
	C578.464172,801.873169 579.809814,804.088684 581.209351,806.269653 
	C590.453003,820.674072 599.836304,834.991638 608.864746,849.529541 
	C610.974426,852.926636 612.882935,853.632935 616.418152,852.081543 
	C619.569580,850.698547 622.984070,849.914795 626.521667,848.790527 
	C633.486023,859.701721 640.344788,870.447449 647.401489,881.503296 
	C624.580994,896.110352 601.973816,910.580811 579.046326,925.256348 
	C572.006287,914.234985 565.137024,903.480896 558.158569,892.555908 
	C561.665894,888.700195 565.115234,884.908203 568.741577,880.921631 
	C564.639648,874.462891 560.656616,868.191284 556.451904,861.632324 
M515.737427,808.725403 
	C517.600281,811.675354 519.609009,814.545471 521.280518,817.600098 
	C522.658508,820.118469 524.299316,820.618408 526.940308,819.643677 
	C530.641357,818.277649 534.465027,817.243774 538.403442,816.015686 
	C552.043701,837.332031 565.589050,858.424561 578.961914,879.625916 
	C579.615112,880.661499 579.305725,883.071045 578.502258,884.117188 
	C575.922119,887.477417 572.899475,890.497864 570.038025,893.659912 
	C574.114258,899.961182 577.971863,905.924500 581.987549,912.132141 
	C599.607239,900.834900 616.900146,889.747131 634.395447,878.529602 
	C630.339905,872.183838 626.428284,866.063232 622.506714,859.927063 
	C617.333496,861.559448 612.467896,863.094727 607.436157,864.682434 
	C593.252686,842.520813 579.236389,820.620605 565.232300,798.739319 
	C568.996155,794.639526 572.346680,790.989990 575.866699,787.155823 
	C571.847290,780.856018 567.944214,774.738403 563.844971,768.313477 
	C546.229187,779.609253 528.962585,790.681091 511.454498,801.907776 
	C512.891724,804.241577 514.092468,806.191284 515.737427,808.725403 
z"/>
<path fill="#F9F9F9" opacity="1.000000" stroke="none" 
	d="
M495.258728,840.711548 
	C496.970398,842.778503 498.453613,844.571350 500.058868,846.511841 
	C497.065338,850.762939 494.116547,854.950562 491.044067,859.313782 
	C504.661987,875.579651 518.198730,891.748535 531.920776,908.138733 
	C536.675415,905.951843 541.302673,903.823486 546.262756,901.542114 
	C554.531433,911.427979 562.717346,921.214905 571.111938,931.251282 
	C550.388245,948.648315 529.895264,965.851746 508.877228,983.495911 
	C500.536163,973.533020 492.267273,963.656372 484.000336,953.781982 
	C487.085938,949.324768 490.004913,945.108276 493.054321,940.703369 
	C479.433167,924.430725 465.891754,908.253296 452.163910,891.853149 
	C448.304504,893.640686 444.650177,895.607483 440.784027,896.976074 
	C439.419189,897.459290 436.857056,897.069702 435.997009,896.077332 
	C428.257812,887.147400 420.775848,877.994507 412.875061,868.494263 
	C433.577820,851.195190 454.181641,833.978821 475.111389,816.490112 
	C481.892609,824.642822 488.461426,832.540161 495.258728,840.711548 
M461.046722,840.539978 
	C449.484955,850.218628 437.923187,859.897217 426.109985,869.786377 
	C431.016205,875.660461 435.688507,881.254456 440.389526,886.882812 
	C445.243683,884.658875 449.874237,882.537354 454.741455,880.307434 
	C471.585083,900.422791 488.295593,920.379150 504.902344,940.211609 
	C501.653748,944.886353 498.744537,949.072693 495.838593,953.254333 
	C500.693848,959.005127 505.290161,964.449280 510.108307,970.156189 
	C526.085327,956.802429 541.832642,943.640747 557.841064,930.260742 
	C555.494751,927.436340 553.377502,924.896851 551.270142,922.349243 
	C543.770264,913.282776 543.773132,913.285095 533.269043,917.995483 
	C532.072693,918.532043 530.847168,919.003601 529.300354,919.643860 
	C512.558533,899.654114 495.827759,879.677490 479.166046,859.783447 
	C482.350830,855.225769 485.271729,851.045776 488.187469,846.873169 
	C483.237549,841.001404 478.552368,835.443665 473.862244,829.880066 
	C469.516846,833.488159 465.551270,836.780823 461.046722,840.539978 
z"/>
<path fill="#0D0D0D" opacity="1.000000" stroke="none" 
	d="
M1331.366943,828.029480 
	C1328.108643,825.054688 1324.653198,822.217346 1321.628906,818.977661 
	C1320.638916,817.917236 1319.993286,815.481140 1320.520996,814.239929 
	C1322.834351,808.798157 1325.636108,803.563904 1329.250854,798.255676 
	C1330.032837,807.937500 1330.814819,817.619263 1331.402832,827.674683 
	C1331.208618,828.048340 1331.337524,828.010376 1331.366943,828.029480 
z"/>
<path fill="#020202" opacity="1.000000" stroke="none" 
	d="
M1361.894287,729.424194 
	C1362.901123,731.147034 1364.082031,732.616150 1364.166016,734.145569 
	C1365.848633,764.752808 1367.406982,795.366882 1368.977783,825.980286 
	C1369.042358,827.239136 1368.986084,828.504211 1369.973877,830.027527 
	C1378.786987,812.106201 1387.600098,794.184937 1396.636719,775.809204 
	C1392.695557,772.405518 1388.840820,769.076538 1384.740967,765.535767 
	C1387.990967,758.932556 1391.190674,752.431213 1394.566772,745.571899 
	C1411.486084,753.811279 1428.171875,761.936890 1445.120728,770.190552 
	C1442.165161,776.210510 1439.469482,782.056091 1436.382202,787.687012 
	C1435.772339,788.799316 1433.578613,789.772766 1432.247681,789.624146 
	C1428.161011,789.167847 1424.138672,788.135559 1419.859741,787.281006 
	C1404.514038,818.480042 1389.284546,849.442871 1373.801758,880.920593 
	C1364.327637,876.285583 1354.988892,871.843140 1345.822266,867.069946 
	C1344.693970,866.482361 1344.045044,864.164917 1343.915161,862.588074 
	C1341.184692,829.406311 1338.560791,796.215820 1335.838135,762.048706 
	C1334.729492,764.037292 1333.995483,765.229126 1333.378906,766.478943 
	C1325.297729,782.861328 1317.298096,799.284607 1309.099976,815.608154 
	C1307.736206,818.323853 1307.834717,820.007263 1310.310303,821.880066 
	C1313.349365,824.179077 1316.113403,826.841553 1319.266235,829.581482 
	C1316.044312,836.172913 1312.866699,842.673706 1309.569092,849.419678 
	C1292.740601,841.194580 1276.198486,833.109497 1259.246460,824.824036 
	C1262.513306,818.145630 1265.672241,811.687561 1268.931763,805.023926 
	C1274.111816,806.003906 1279.129028,806.953064 1284.420776,807.954163 
	C1295.955322,784.503052 1307.430054,761.173584 1318.923218,737.806519 
	C1314.814331,734.173462 1310.967896,730.772522 1307.036011,727.295959 
	C1310.266357,720.738342 1313.410645,714.355591 1316.846069,707.381775 
	C1331.857056,714.706238 1346.707397,721.952393 1361.894287,729.424194 
z"/>
<path fill="#020202" opacity="1.000000" stroke="none" 
	d="
M1415.989502,878.092285 
	C1417.888672,878.249146 1419.884277,878.935730 1420.875000,878.223816 
	C1442.210205,862.892761 1463.432861,847.405273 1484.902100,831.784363 
	C1482.063477,827.633179 1479.383057,823.713379 1476.535400,819.549133 
	C1481.063965,813.752808 1485.547363,808.014404 1490.310181,801.918274 
	C1509.412842,816.792786 1528.364014,831.549255 1547.521118,846.466125 
	C1540.477783,862.701965 1533.563232,878.672241 1526.622803,894.631165 
	C1519.870605,910.156799 1513.229980,925.733765 1506.222534,941.143616 
	C1504.575928,944.764282 1504.964844,947.183655 1507.571655,949.916748 
	C1510.088989,952.555969 1512.237061,955.547363 1514.925171,958.847717 
	C1510.546387,964.500427 1506.111328,970.225830 1501.394165,976.315308 
	C1485.151001,963.668884 1469.045776,951.129761 1452.667969,938.378418 
	C1456.836304,933.000183 1460.794556,927.674927 1465.053345,922.602112 
	C1465.808228,921.703003 1467.902466,921.377380 1469.226074,921.619141 
	C1472.134644,922.150696 1474.946167,923.214600 1478.312012,924.213989 
	C1480.886597,917.873657 1483.410278,911.658752 1486.095215,905.046936 
	C1476.255737,897.363464 1466.451172,889.707336 1456.568726,881.990295 
	C1451.109253,886.045959 1445.784912,890.001160 1440.622314,893.836304 
	C1440.591187,894.440247 1440.445068,894.837769 1440.580444,894.998657 
	C1446.246582,901.733032 1445.427979,907.704529 1438.939331,913.518066 
	C1436.274902,915.905334 1434.367065,919.136902 1431.892212,922.266235 
	C1418.560913,911.879944 1405.473755,901.684021 1391.915771,891.121216 
	C1396.411011,885.337158 1400.839844,879.638489 1405.444214,873.713928 
	C1408.945435,875.178833 1412.281738,876.574768 1415.989502,878.092285 
M1496.738770,879.226685 
	C1501.827148,866.488159 1506.915405,853.749573 1512.572510,839.586792 
	C1497.016724,851.090515 1482.686890,861.687561 1468.064575,872.500854 
	C1476.178589,878.779114 1483.870239,884.730652 1491.926270,890.963928 
	C1493.531738,886.950928 1494.943237,883.423096 1496.738770,879.226685 
z"/>
<path fill="#0D0D0D" opacity="1.000000" stroke="none" 
	d="
M1379.449341,789.542908 
	C1378.746826,790.875244 1378.251221,791.882690 1377.755737,792.890137 
	C1377.427734,792.863647 1377.099854,792.837097 1376.771851,792.810608 
	C1376.391357,785.674988 1376.010742,778.539307 1375.551636,769.932251 
	C1379.300293,773.188293 1382.160400,775.672546 1385.020996,778.157227 
	C1383.120728,782.075012 1381.388550,785.646484 1379.449341,789.542908 
z"/>
<path fill="#000000" opacity="1.000000" stroke="none" 
	d="
M1380.566528,888.071533 
	C1381.168823,888.106262 1381.468262,888.396179 1381.767700,888.686096 
	C1381.266357,888.566284 1380.765015,888.446472 1380.566528,888.071533 
z"/>
<path fill="#000000" opacity="1.000000" stroke="none" 
	d="
M1382.250000,886.250000 
	C1382.533325,886.299988 1382.566650,886.600037 1382.599976,886.900024 
	C1382.400024,886.766663 1382.199951,886.633301 1382.250000,886.250000 
z"/>
<path fill="#020202" opacity="1.000000" stroke="none" 
	d="
M1180.846924,668.053833 
	C1214.790527,676.990173 1248.329468,685.854248 1282.355469,694.847046 
	C1278.177490,710.676331 1274.084473,726.183899 1269.971924,741.765625 
	C1263.087769,739.954163 1256.697876,738.272766 1250.033325,736.519104 
	C1250.856079,727.949341 1251.662598,719.548950 1252.505615,710.768677 
	C1244.766357,708.759033 1237.255005,706.808533 1229.243774,704.728210 
	C1222.300537,731.020874 1215.404663,757.134460 1208.404663,783.642639 
	C1213.625610,786.467346 1218.689453,789.207092 1224.025269,792.093933 
	C1222.203247,799.031799 1220.404297,805.881531 1218.460571,813.282166 
	C1197.106812,807.676025 1175.976196,802.128540 1154.400391,796.464111 
	C1156.056152,789.949341 1157.526978,783.674133 1159.354004,777.504395 
	C1159.625122,776.589233 1161.546021,775.689941 1162.756470,775.613098 
	C1166.573608,775.370605 1170.437134,775.753967 1174.236328,775.398071 
	C1175.581055,775.271973 1177.625732,773.941833 1177.941162,772.778992 
	C1184.725342,747.766846 1191.310913,722.700867 1197.915405,697.640198 
	C1197.989746,697.357788 1197.803955,697.006897 1197.683105,696.407166 
	C1191.081665,694.672302 1184.396851,692.734558 1177.605469,691.302551 
	C1176.422729,691.053223 1174.105713,692.604553 1173.480591,693.891541 
	C1170.301636,700.436096 1167.507202,707.167419 1164.514282,713.978699 
	C1157.681396,712.170776 1151.131958,710.437805 1144.317017,708.634644 
	C1148.440186,692.958496 1152.488281,677.568176 1156.649048,661.749207 
	C1164.770020,663.876404 1172.606079,665.929016 1180.846924,668.053833 
z"/>
<path fill="#020202" opacity="1.000000" stroke="none" 
	d="
M672.100708,839.863525 
	C671.320496,837.993103 670.659607,836.479980 669.823914,834.566589 
	C672.094604,832.914917 674.355408,831.293152 676.591370,829.637878 
	C678.857422,827.960205 681.098938,826.249329 683.808655,824.208496 
	C672.954590,799.357056 662.099670,774.503601 651.075928,749.263794 
	C643.555603,752.566956 636.463379,755.682129 628.982971,758.967773 
	C631.105774,767.201904 633.199707,775.324219 635.388062,783.812500 
	C628.993896,786.599548 622.789368,789.304016 616.280640,792.141052 
	C609.840637,777.459412 603.457153,762.906616 596.860657,747.868042 
	C636.549255,730.471985 676.026855,713.168518 716.004456,695.645813 
	C722.446838,710.384949 728.804932,724.931152 735.415100,740.054199 
	C729.124451,742.823669 722.976624,745.530273 716.512878,748.375977 
	C711.836365,741.129211 707.263977,734.043823 702.568359,726.767456 
	C695.240662,729.995056 688.137634,733.123657 680.478210,736.497314 
	C691.392517,761.411499 702.220032,786.127563 713.198303,811.187805 
	C718.952026,810.142090 724.628662,809.110352 730.556824,808.032959 
	C733.467834,814.628906 736.328247,821.110291 739.426697,828.131042 
	C719.213562,837.021606 699.228699,845.811707 678.759949,854.814697 
	C676.503357,849.779114 674.361694,845.000000 672.100708,839.863525 
z"/>
<path fill="#020202" opacity="1.000000" stroke="none" 
	d="
M1015.132812,779.980652 
	C1002.901489,779.173035 991.140381,778.380737 978.928101,777.558105 
	C979.332764,770.774170 979.616272,764.167603 980.243835,757.593811 
	C980.333191,756.657959 982.106567,755.128601 983.075928,755.147278 
	C993.142578,755.341614 996.734436,749.424866 999.593628,740.620361 
	C1006.557495,719.176392 1014.674866,698.107056 1022.521362,676.349548 
	C1019.174866,675.043762 1016.054321,673.600037 1012.794312,672.620117 
	C1009.781616,671.714661 1008.550720,670.252441 1008.925415,666.946228 
	C1009.579346,661.176208 1009.785339,655.355286 1010.241699,648.633179 
	C1034.298096,650.167053 1058.269531,651.695435 1082.578735,653.245361 
	C1085.705566,669.811890 1088.824585,686.250305 1091.907837,702.695312 
	C1095.276978,720.666016 1098.536377,738.658081 1102.094727,756.591003 
	C1102.412598,758.193176 1104.321411,759.991333 1105.934082,760.723877 
	C1109.936279,762.541809 1115.785156,762.659668 1117.888794,765.605347 
	C1119.868896,768.377808 1118.065186,773.896912 1117.816406,778.201294 
	C1117.655518,780.986633 1117.296875,783.760620 1117.017456,786.635376 
	C1096.464355,785.274841 1076.407471,783.947144 1055.709595,782.577087 
	C1056.163452,775.207642 1056.608521,767.979126 1057.077026,760.373230 
	C1060.901855,759.101196 1064.760742,757.817871 1068.920044,756.434692 
	C1067.437988,749.651489 1065.999634,743.068176 1064.512695,736.262573 
	C1052.017700,735.419617 1039.769531,734.593323 1027.262695,733.749573 
	C1025.012817,740.197144 1022.842957,746.415527 1020.759277,752.386597 
	C1021.056580,753.023560 1021.136230,753.523987 1021.338318,753.579712 
	C1029.572998,755.848694 1032.431885,760.890076 1030.234131,769.293335 
	C1029.293823,772.888062 1029.669312,776.826904 1029.428955,780.916748 
	C1024.515747,780.589600 1020.059448,780.292786 1015.132812,779.980652 
M1052.025757,677.455261 
	C1051.327271,674.466003 1050.628784,671.476807 1049.694702,667.479675 
	C1043.411133,685.322510 1037.499023,702.110596 1031.362671,719.535583 
	C1041.757812,720.108765 1051.406006,720.640747 1061.579346,721.201721 
	C1058.332031,706.422363 1055.239868,692.349487 1052.025757,677.455261 
z"/>
<path fill="#020202" opacity="1.000000" stroke="none" 
	d="
M908.547729,786.325317 
	C888.489746,788.967590 868.896545,791.522522 848.870911,794.133789 
	C847.894470,786.761658 846.963257,779.731384 845.975647,772.275391 
	C850.658203,770.322021 855.343079,768.367676 860.505310,766.214172 
	C859.262268,756.041016 858.064758,745.846985 856.761169,735.666504 
	C854.902222,721.148499 852.864136,706.652405 851.147888,692.118042 
	C850.805786,689.220581 849.929382,688.083191 846.989380,687.933044 
	C843.192261,687.739014 839.421387,687.032043 835.114563,686.478577 
	C834.151306,679.282715 833.191345,672.111450 832.167786,664.465393 
	C843.399719,662.976257 854.371887,661.496643 865.351013,660.071411 
	C884.814087,657.544861 904.272461,654.976807 923.759094,652.645752 
	C925.997131,652.377991 928.744690,652.939636 930.670532,654.093689 
	C938.505920,658.789307 946.158569,663.797485 953.762390,668.864868 
	C955.107971,669.761658 956.618652,671.385437 956.831970,672.851196 
	C958.412476,683.712158 959.842102,694.602661 960.914368,705.523560 
	C961.119934,707.616943 960.080017,710.347168 958.682495,711.990967 
	C953.618469,717.947083 947.884033,723.342712 942.947632,729.394470 
	C939.918030,733.108643 936.333740,734.393738 931.892822,734.914856 
	C918.033142,736.540894 904.197083,738.368469 889.683167,740.202393 
	C890.572266,747.522705 891.442810,754.689819 892.348938,762.150391 
	C897.577454,762.960815 902.632629,763.744324 907.983276,764.573669 
	C908.883118,771.251099 909.812378,777.816162 910.573242,784.400696 
	C910.636292,784.945740 909.559692,785.622437 908.547729,786.325317 
M913.298828,711.858826 
	C916.608154,710.720398 920.222534,710.093384 923.164246,708.338684 
	C929.572571,704.515930 927.539734,698.379944 927.223938,692.420593 
	C926.904724,686.394836 924.741211,682.178284 919.177612,680.330627 
	C916.558411,679.460815 913.436218,679.643433 910.607544,679.951477 
	C901.264771,680.968994 891.951843,682.261169 882.324829,683.486450 
	C883.705627,694.314636 885.018738,704.611938 886.369873,715.207336 
	C895.343506,714.082642 903.886353,713.011902 913.298828,711.858826 
z"/>
<path fill="#020202" opacity="1.000000" stroke="none" 
	d="
M515.515320,808.433228 
	C514.092468,806.191284 512.891724,804.241577 511.454498,801.907776 
	C528.962585,790.681091 546.229187,779.609253 563.844971,768.313477 
	C567.944214,774.738403 571.847290,780.856018 575.866699,787.155823 
	C572.346680,790.989990 568.996155,794.639526 565.232300,798.739319 
	C579.236389,820.620605 593.252686,842.520813 607.436157,864.682434 
	C612.467896,863.094727 617.333496,861.559448 622.506714,859.927063 
	C626.428284,866.063232 630.339905,872.183838 634.395447,878.529602 
	C616.900146,889.747131 599.607239,900.834900 581.987549,912.132141 
	C577.971863,905.924500 574.114258,899.961182 570.038025,893.659912 
	C572.899475,890.497864 575.922119,887.477417 578.502258,884.117188 
	C579.305725,883.071045 579.615112,880.661499 578.961914,879.625916 
	C565.589050,858.424561 552.043701,837.332031 538.403442,816.015686 
	C534.465027,817.243774 530.641357,818.277649 526.940308,819.643677 
	C524.299316,820.618408 522.658508,820.118469 521.280518,817.600098 
	C519.609009,814.545471 517.600281,811.675354 515.515320,808.433228 
z"/>
<path fill="#020202" opacity="1.000000" stroke="none" 
	d="
M461.316223,840.306763 
	C465.551270,836.780823 469.516846,833.488159 473.862244,829.880066 
	C478.552368,835.443665 483.237549,841.001404 488.187469,846.873169 
	C485.271729,851.045776 482.350830,855.225769 479.166046,859.783447 
	C495.827759,879.677490 512.558533,899.654114 529.300354,919.643860 
	C530.847168,919.003601 532.072693,918.532043 533.269043,917.995483 
	C543.773132,913.285095 543.770264,913.282776 551.270142,922.349243 
	C553.377502,924.896851 555.494751,927.436340 557.841064,930.260742 
	C541.832642,943.640747 526.085327,956.802429 510.108307,970.156189 
	C505.290161,964.449280 500.693848,959.005127 495.838593,953.254333 
	C498.744537,949.072693 501.653748,944.886353 504.902344,940.211609 
	C488.295593,920.379150 471.585083,900.422791 454.741455,880.307434 
	C449.874237,882.537354 445.243683,884.658875 440.389526,886.882812 
	C435.688507,881.254456 431.016205,875.660461 426.109985,869.786377 
	C437.923187,859.897217 449.484955,850.218628 461.316223,840.306763 
z"/>
<path fill="#F9F9F9" opacity="1.000000" stroke="none" 
	d="
M1496.546631,879.560974 
	C1494.943237,883.423096 1493.531738,886.950928 1491.926270,890.963928 
	C1483.870239,884.730652 1476.178589,878.779114 1468.064575,872.500854 
	C1482.686890,861.687561 1497.016724,851.090515 1512.572510,839.586792 
	C1506.915405,853.749573 1501.827148,866.488159 1496.546631,879.560974 
M1488.179077,874.905762 
	C1489.169312,872.607849 1490.159668,870.309937 1491.149902,868.012085 
	C1490.884399,867.857605 1490.618896,867.703125 1490.353271,867.548645 
	C1488.187866,869.149841 1486.022461,870.750977 1483.504150,872.613159 
	C1485.222778,873.796997 1486.420898,874.622375 1488.179077,874.905762 
z"/>
<path fill="#F9F9F9" opacity="1.000000" stroke="none" 
	d="
M1052.086670,677.865906 
	C1055.239868,692.349487 1058.332031,706.422363 1061.579346,721.201721 
	C1051.406006,720.640747 1041.757812,720.108765 1031.362671,719.535583 
	C1037.499023,702.110596 1043.411133,685.322510 1049.694702,667.479675 
	C1050.628784,671.476807 1051.327271,674.466003 1052.086670,677.865906 
M1044.970825,708.966858 
	C1046.269165,709.827759 1047.567627,710.688721 1048.865967,711.549622 
	C1049.116455,711.150208 1049.366943,710.750793 1049.617310,710.351379 
	C1049.028198,707.780823 1048.438965,705.210327 1047.635620,701.705750 
	C1046.562988,704.526001 1045.870239,706.347107 1044.970825,708.966858 
z"/>
<path fill="#F9F9F9" opacity="1.000000" stroke="none" 
	d="
M912.864014,711.900024 
	C903.886353,713.011902 895.343506,714.082642 886.369873,715.207336 
	C885.018738,704.611938 883.705627,694.314636 882.324829,683.486450 
	C891.951843,682.261169 901.264771,680.968994 910.607544,679.951477 
	C913.436218,679.643433 916.558411,679.460815 919.177612,680.330627 
	C924.741211,682.178284 926.904724,686.394836 927.223938,692.420593 
	C927.539734,698.379944 929.572571,704.515930 923.164246,708.338684 
	C920.222534,710.093384 916.608154,710.720398 912.864014,711.900024 
M917.749451,693.030579 
	C917.538025,689.997437 916.131287,688.514893 912.895264,688.951538 
	C906.339722,689.836121 899.767334,690.595642 892.843140,691.451050 
	C893.408630,695.861877 893.929382,699.923767 894.448425,703.972290 
	C895.217102,704.133789 895.700073,704.364136 896.148438,704.309692 
	C901.100037,703.708557 906.059875,703.153076 910.990784,702.408691 
	C918.491150,701.276367 918.482239,701.217224 917.749451,693.030579 
z"/>
<path fill="#171717" opacity="1.000000" stroke="none" 
	d="
M1487.899048,875.176758 
	C1486.420898,874.622375 1485.222778,873.796997 1483.504150,872.613159 
	C1486.022461,870.750977 1488.187866,869.149841 1490.353271,867.548645 
	C1490.618896,867.703125 1490.884399,867.857605 1491.149902,868.012085 
	C1490.159668,870.309937 1489.169312,872.607849 1487.899048,875.176758 
z"/>
<path fill="#171717" opacity="1.000000" stroke="none" 
	d="
M1045.074219,708.567505 
	C1045.870239,706.347107 1046.562988,704.526001 1047.635620,701.705750 
	C1048.438965,705.210327 1049.028198,707.780823 1049.617310,710.351379 
	C1049.366943,710.750793 1049.116455,711.150208 1048.865967,711.549622 
	C1047.567627,710.688721 1046.269165,709.827759 1045.074219,708.567505 
z"/>
<path fill="#070707" opacity="1.000000" stroke="none" 
	d="
M917.804443,693.465210 
	C918.482239,701.217224 918.491150,701.276367 910.990784,702.408691 
	C906.059875,703.153076 901.100037,703.708557 896.148438,704.309692 
	C895.700073,704.364136 895.217102,704.133789 894.448425,703.972290 
	C893.929382,699.923767 893.408630,695.861877 892.843140,691.451050 
	C899.767334,690.595642 906.339722,689.836121 912.895264,688.951538 
	C916.131287,688.514893 917.538025,689.997437 917.804443,693.465210 
z"/>
</svg>