<svg version="1.1" id="Layer_1" xmlns="http://www.w3.org/2000/svg" xmlns:xlink="http://www.w3.org/1999/xlink" x="0px" y="0px"
	 width="100%" viewBox="0 0 2000 1634" enable-background="new 0 0 2000 1634" xml:space="preserve">
<path fill="#000000" opacity="1.000000" stroke="none" 
	d="
M1.466341,1634.211914 
	C1.000000,1091.211548 1.006976,548.423157 0.875648,5.634758 
	C0.874608,1.335326 2.049662,0.905704 5.864500,0.906265 
	C669.309570,1.003811 1332.754761,1.004335 1996.199829,0.896949 
	C2000.147949,0.896310 2001.117554,1.537369 2001.116577,5.699049 
	C2000.993774,548.153625 2001.000000,1090.608154 2001.000000,1633.531372 
	C1999.267944,1634.919189 1997.398071,1634.463379 1995.599609,1634.463379 
	C1332.562256,1634.486206 669.524780,1634.485962 6.487377,1634.483887 
	C4.969080,1634.483887 3.449750,1634.529663 1.466341,1634.211914 
z"/>
<path fill="#171717" opacity="1.000000" stroke="none" 
	d="
M1.000000,1634.500000 
	C667.370911,1634.000000 1333.741821,1634.000000 2000.556396,1634.000000 
	C2000.781982,1634.307617 2001.505615,1635.042725 2000.499634,1635.010498 
	C1999.167603,1634.967773 1997.833374,1635.000000 1996.500000,1635.000000 
	C1331.333374,1635.000000 666.166687,1635.000000 1.000000,1634.500000 
z"/>
<path fill="#F9F9F9" opacity="1.000000" stroke="none" 
	d="
M1242.662354,763.960571 
	C1265.578857,759.579956 1286.201050,749.650940 1307.642700,742.184631 
	C1311.446655,740.860107 1313.915649,741.168335 1316.860229,743.922119 
	C1323.058472,749.718872 1329.597656,755.155457 1336.090942,760.628357 
	C1337.209473,761.571045 1338.196411,763.969971 1340.036865,762.586731 
	C1341.385742,761.572937 1339.901367,759.865417 1339.441406,758.557312 
	C1336.963257,751.510803 1334.511230,744.451050 1331.807983,737.489990 
	C1330.839966,734.996826 1330.802734,733.838196 1333.744141,732.784729 
	C1355.152710,725.117126 1376.500610,717.278992 1397.826904,709.384644 
	C1400.436646,708.418518 1401.492065,708.797241 1402.435913,711.567871 
	C1405.914429,721.779419 1409.605225,731.922485 1413.440796,742.005920 
	C1414.344238,744.380981 1413.833862,745.479614 1411.906128,746.906189 
	C1408.517578,749.413635 1402.946777,750.695068 1402.364502,754.814209 
	C1401.849854,758.455322 1404.708618,762.587524 1406.126709,766.485107 
	C1416.286133,794.406738 1426.412354,822.340576 1436.689087,850.218994 
	C1437.839600,853.340088 1437.493042,854.679565 1434.152344,855.818115 
	C1421.583618,860.102112 1409.077881,864.584290 1396.657593,869.280334 
	C1393.846191,870.343384 1392.116089,869.812561 1389.995483,868.036072 
	C1381.187744,860.657288 1372.274414,853.403870 1363.356323,846.157959 
	C1361.906006,844.979675 1360.608643,842.987732 1358.295654,844.306274 
	C1362.125977,854.754333 1365.906860,865.191833 1369.799805,875.587463 
	C1370.640137,877.831360 1370.425415,879.026550 1367.911499,879.922729 
	C1346.334717,887.614929 1324.779907,895.371033 1303.281860,903.279968 
	C1300.877686,904.164368 1300.151367,903.616760 1299.391602,901.487488 
	C1295.710327,891.169495 1291.990234,880.863892 1288.117310,870.616821 
	C1287.201294,868.193726 1288.072388,867.101501 1289.929932,865.777100 
	C1293.292603,863.379456 1298.698975,861.892029 1299.452881,858.324890 
	C1300.183716,854.866089 1297.162476,850.598572 1295.741577,846.703491 
	C1290.338379,831.890747 1284.929443,817.079956 1279.479370,802.284302 
	C1278.953247,800.855713 1279.005493,798.796265 1276.510254,799.005981 
	C1273.368530,799.270142 1270.162964,799.215271 1267.214111,800.416382 
	C1266.885620,800.550293 1267.206299,802.582275 1267.421387,803.696167 
	C1268.713867,810.389771 1270.017212,817.082092 1271.425049,823.752014 
	C1271.795044,825.505005 1272.340332,826.729980 1269.700317,827.230164 
	C1258.755981,829.303589 1247.849976,831.583618 1236.951782,833.891357 
	C1234.702271,834.367676 1234.102783,833.199951 1233.491089,831.472412 
	C1231.330078,825.369629 1228.818237,819.378174 1226.942261,813.192078 
	C1225.797852,809.418335 1223.575684,810.578003 1221.161133,810.944397 
	C1217.674927,811.473572 1219.686401,813.712891 1219.949707,815.078857 
	C1223.601318,834.017212 1227.400757,852.927002 1231.057373,871.864380 
	C1231.523682,874.279175 1232.481079,875.040222 1234.991211,875.079285 
	C1239.771484,875.153748 1245.890137,873.257935 1248.954834,876.367188 
	C1251.698853,879.150940 1251.285522,885.067810 1252.216797,889.612305 
	C1253.652100,896.616882 1254.888306,903.667297 1256.536377,910.620667 
	C1257.180542,913.338013 1256.389038,913.914246 1253.909180,914.398804 
	C1228.125000,919.437561 1202.363525,924.593262 1176.605347,929.763794 
	C1174.405029,930.205505 1173.379517,929.873596 1172.912354,927.330750 
	C1170.929565,916.538879 1168.785889,905.772827 1166.448608,895.052429 
	C1165.929565,892.672119 1166.635010,891.804077 1168.606201,890.982910 
	C1172.281372,889.451843 1175.837524,887.634033 1179.518555,886.118530 
	C1181.405884,885.341492 1181.829468,884.466980 1181.399048,882.361633 
	C1177.437500,862.976929 1173.649048,843.556824 1169.783081,824.152466 
	C1169.461670,822.538574 1169.224365,820.792297 1166.664795,821.710449 
	C1164.920288,822.336243 1162.564331,821.678711 1162.756470,824.902710 
	C1163.152954,831.553528 1163.177612,838.226868 1163.594849,844.875977 
	C1163.747192,847.305054 1163.235962,848.492004 1160.659912,848.968018 
	C1150.197021,850.901245 1139.737427,852.878113 1129.346191,855.156616 
	C1126.323486,855.819397 1125.671631,854.656372 1125.191650,852.207397 
	C1121.321411,832.463562 1117.474365,812.714111 1113.391846,793.013794 
	C1112.733643,789.837891 1113.989502,789.438416 1116.489258,788.947510 
	C1157.279419,780.936890 1198.054321,772.848999 1238.831787,764.773438 
	C1239.973389,764.547424 1241.104004,764.265869 1242.662354,763.960571 
z"/>
<path fill="#F9F9F9" opacity="1.000000" stroke="none" 
	d="
M777.253845,768.938477 
	C780.287781,769.595032 781.365723,770.432495 780.256042,773.703308 
	C773.803528,792.721619 767.627441,811.834839 761.519592,830.967651 
	C760.647766,833.698486 759.749329,834.146057 757.021545,833.212219 
	C747.284851,829.878845 737.448914,826.831726 727.622986,823.764709 
	C725.099915,822.977173 723.850037,822.152588 724.594116,818.933411 
	C726.014404,812.788574 726.493774,806.430420 727.808289,800.255493 
	C728.546692,796.786560 726.508728,796.624390 724.256287,795.730103 
	C721.335571,794.570435 721.333862,796.541626 720.772583,798.258057 
	C714.735901,816.718201 708.736328,835.191040 702.556885,853.603394 
	C701.738037,856.043213 702.072510,857.354675 704.381958,858.263550 
	C704.838257,858.443054 705.226562,858.791626 705.653564,859.050110 
	C716.809326,865.800659 716.811340,865.800964 712.842224,877.989685 
	C710.528870,885.093811 708.131104,892.171875 705.932678,899.311401 
	C705.167114,901.797241 704.239746,902.752319 701.446716,901.822144 
	C676.561707,893.534607 651.645691,885.339172 626.702637,877.228027 
	C624.474243,876.503357 623.807495,875.927490 624.648132,873.465759 
	C628.242065,862.940247 631.615234,852.338623 634.981506,841.737000 
	C635.588623,839.824890 636.454529,839.159973 638.554932,839.370422 
	C643.449219,839.860901 649.611938,842.333191 652.942810,839.533997 
	C656.194214,836.801636 656.535522,830.571106 658.083008,825.852783 
	C662.842773,811.340698 667.543213,796.809021 672.338013,782.308533 
	C672.953430,780.447388 673.752258,778.781372 670.961304,778.219116 
	C669.083069,777.840820 667.239990,776.176575 665.787964,779.458252 
	C663.107422,785.516541 659.746460,791.270081 656.873596,797.248901 
	C655.788818,799.506348 654.713318,799.924255 652.305054,799.088623 
	C642.270691,795.606934 632.192810,792.233337 622.032959,789.141785 
	C619.035339,788.229553 619.089722,787.041077 619.934265,784.565125 
	C622.974426,775.651917 625.802979,766.666504 628.963074,756.933533 
	C623.819397,758.784729 619.638672,757.051147 615.389709,756.194336 
	C612.162903,755.543640 610.157715,755.873596 608.539001,759.493164 
	C601.019714,776.306824 593.161438,792.970581 585.249329,809.604797 
	C583.960449,812.314453 584.091125,813.817322 586.534363,815.786072 
	C595.843567,823.287415 595.762512,823.383301 590.790039,834.089905 
	C587.505554,841.161987 584.147522,848.201782 580.996460,855.333008 
	C579.895752,857.824158 578.864929,858.336975 576.226562,857.093689 
	C553.856750,846.551697 531.425659,836.138672 508.958923,825.804504 
	C506.434570,824.643311 506.004242,823.584290 507.227234,821.071106 
	C511.801697,811.671143 516.222717,802.194458 520.550537,792.677979 
	C521.639221,790.284058 522.716858,788.629639 525.633362,789.866760 
	C525.927551,789.991638 526.289490,789.967346 526.621460,789.990906 
	C530.362366,790.256409 534.731628,793.023254 537.556213,790.988831 
	C540.287842,789.021484 541.212585,784.489990 542.826599,781.036072 
	C549.500977,766.752808 556.058716,752.414429 562.847595,738.186096 
	C564.273560,735.197571 564.325623,733.409119 561.439880,731.142395 
	C552.395874,724.038452 552.513367,723.896912 557.289612,713.623291 
	C560.577087,706.551941 563.981018,699.530273 567.066650,692.371582 
	C568.391968,689.296875 569.636597,688.618469 572.884521,690.159241 
	C594.326172,700.331604 616.459961,709.210632 637.225647,720.595276 
	C657.526062,731.724792 679.852295,736.263489 701.205566,743.875977 
	C726.215027,752.791931 751.628235,760.575500 777.253845,768.938477 
z"/>
<path fill="#F8F8F8" opacity="1.000000" stroke="none" 
	d="
M975.865173,908.526184 
	C979.215393,904.485657 984.175049,904.729919 988.375305,903.189270 
	C990.876709,902.271912 992.101379,901.130005 992.681335,898.592773 
	C997.123535,879.157959 1001.583313,859.725952 1006.288391,840.353943 
	C1006.991455,837.459106 1006.386963,836.678894 1003.718384,836.030457 
	C995.168213,833.952942 995.092346,833.863647 994.521484,825.212219 
	C993.929443,816.239990 993.634583,807.248108 993.037354,798.276306 
	C992.868103,795.733887 993.507690,794.945862 996.172913,794.828003 
	C1023.124573,793.636475 1050.074585,792.384705 1077.010254,790.884338 
	C1081.063232,790.658508 1082.728760,791.763123 1083.908569,795.657654 
	C1093.532349,827.425842 1103.451416,859.104492 1113.078735,890.871582 
	C1114.196899,894.561218 1115.842896,896.643738 1119.730103,896.680176 
	C1119.893066,896.681763 1120.055298,896.747620 1120.218262,896.781006 
	C1124.409790,897.638794 1130.062500,896.672546 1132.404053,899.684814 
	C1134.528809,902.418152 1133.497681,907.656311 1133.730713,911.797241 
	C1134.161377,919.445496 1134.397339,927.106140 1134.931396,934.746460 
	C1135.113770,937.354675 1134.364258,938.050842 1131.758423,938.173889 
	C1107.472412,939.321533 1083.187866,940.528809 1058.918213,941.974182 
	C1055.015625,942.206604 1054.169678,940.964966 1054.096313,937.388123 
	C1053.901855,927.900391 1053.647949,918.391052 1052.773315,908.950012 
	C1052.352783,904.410889 1053.885620,902.356018 1057.902832,901.020142 
	C1059.298462,900.555969 1062.233887,901.019287 1061.373901,897.532227 
	C1060.604492,894.412231 1058.572021,894.831360 1056.422607,894.942688 
	C1051.101074,895.218323 1045.781738,895.600159 1040.456787,895.717896 
	C1038.115845,895.769653 1036.961060,896.395874 1036.486816,898.908142 
	C1035.963623,901.678650 1038.065796,901.709290 1039.358521,901.895386 
	C1044.315063,902.608826 1045.478394,905.546936 1045.568115,910.126648 
	C1045.753784,919.612000 1046.440430,929.088318 1046.972900,938.565430 
	C1047.092407,940.692139 1047.249756,942.282349 1044.170288,942.425903 
	C1022.878479,943.418335 1001.592407,944.547607 980.311890,945.761353 
	C976.901794,945.955811 977.515564,943.632507 977.422546,941.848450 
	C976.849792,930.872375 976.378052,919.890930 975.865173,908.526184 
z"/>
<path fill="#F9F9F9" opacity="1.000000" stroke="none" 
	d="
M1470.036621,668.138794 
	C1474.150391,665.895020 1478.105103,664.063049 1481.656372,661.639771 
	C1484.532471,659.677307 1486.084351,660.458374 1488.224365,662.748596 
	C1511.316895,687.463623 1534.556274,712.041748 1557.621460,736.782043 
	C1559.848633,739.170959 1561.716675,739.948486 1564.859131,738.945129 
	C1569.396973,737.496277 1574.731812,734.036560 1578.488159,735.921753 
	C1581.930664,737.649231 1583.301514,743.525818 1585.558594,747.588928 
	C1589.027588,753.833008 1592.395874,760.134949 1595.974243,766.315491 
	C1597.158081,768.360413 1596.973511,769.314514 1594.814941,770.500061 
	C1572.978027,782.493469 1551.182129,794.561951 1529.439331,806.724976 
	C1527.139648,808.011475 1526.367432,807.191956 1525.348022,805.306030 
	C1520.213501,795.806519 1515.166260,786.251282 1509.699219,776.944214 
	C1507.304932,772.868225 1511.170776,771.812622 1512.394287,769.488403 
	C1513.210693,767.937378 1515.772217,766.928406 1513.220581,764.682312 
	C1511.956055,763.569153 1511.061646,763.038025 1509.412476,763.982178 
	C1504.079712,767.035095 1498.700317,770.014771 1493.245361,772.841858 
	C1491.328735,773.835144 1491.343140,774.898682 1491.704590,776.807312 
	C1492.182007,779.328491 1493.734131,779.285156 1495.286865,778.730835 
	C1500.784668,776.768433 1503.104248,779.560486 1505.378906,784.160583 
	C1509.497437,792.489563 1514.264282,800.502991 1518.901611,808.567078 
	C1520.161133,810.757324 1520.010498,811.819336 1517.644409,813.116516 
	C1499.146362,823.258423 1480.699097,833.494629 1462.323853,843.857300 
	C1459.844238,845.255554 1459.045288,844.481628 1457.911133,842.384827 
	C1452.776001,832.889709 1447.580566,823.424500 1442.213013,814.059692 
	C1440.959473,811.872498 1441.008911,810.341064 1443.072876,809.107666 
	C1452.692505,803.359375 1452.989136,795.537781 1450.085693,785.510925 
	C1445.608276,770.047607 1442.517700,754.175293 1439.086304,738.422546 
	C1438.381958,735.189087 1437.153809,734.511963 1434.109863,735.169312 
	C1425.852783,736.952515 1425.832764,736.855103 1421.633545,729.286255 
	C1417.442871,721.732727 1413.425537,714.074951 1408.975830,706.677124 
	C1407.081909,703.528381 1407.960083,702.412109 1410.830566,700.843994 
	C1430.509399,690.094116 1450.090698,679.165955 1470.036621,668.138794 
z"/>
<path fill="#F8F8F8" opacity="1.000000" stroke="none" 
	d="
M848.166016,871.939575 
	C849.583496,857.566833 850.862305,843.638794 852.421204,829.742188 
	C852.723877,827.044312 851.595947,826.358215 849.531860,825.519287 
	C845.728821,823.973511 840.136230,823.974854 838.548157,820.627441 
	C837.003479,817.371277 838.736755,812.532349 839.117493,808.396362 
	C839.773743,801.267517 840.620422,794.153870 841.136780,787.015686 
	C841.370300,783.787720 842.154053,782.455566 845.876099,782.837036 
	C872.209961,785.535522 898.569824,787.980774 924.920227,790.518921 
	C932.377747,791.237183 939.822021,792.125183 947.291931,792.664429 
	C949.854553,792.849304 951.564636,793.906433 953.244324,795.655212 
	C961.321960,804.065247 969.438049,812.439453 977.639526,820.728455 
	C979.307678,822.414429 979.892212,824.001099 979.626404,826.433289 
	C978.252075,839.010620 977.010376,851.605164 975.961304,864.213562 
	C975.610046,868.435486 974.439209,871.492798 970.519470,873.937805 
	C961.496887,879.565857 952.780029,885.695984 944.083557,891.827148 
	C941.563416,893.603882 939.156982,894.010010 936.187134,893.669434 
	C924.775391,892.361023 913.343201,891.221313 901.906006,890.154480 
	C900.229309,889.998108 897.912292,888.755920 897.276611,892.114197 
	C896.735229,894.974304 898.008728,896.042175 900.355530,896.664490 
	C900.514954,896.706726 900.665283,896.782288 900.820679,896.840149 
	C912.110352,901.041809 912.071899,901.037415 910.746826,912.805176 
	C909.908630,920.249390 909.064819,927.698364 908.509766,935.166504 
	C908.277405,938.293457 907.347717,939.342773 904.050964,938.994873 
	C882.692627,936.740540 861.313904,934.678955 839.942322,932.549805 
	C839.445801,932.500366 838.952148,932.411682 838.460999,932.320557 
	C834.770386,931.635437 829.616333,933.335510 827.717224,930.333923 
	C826.152039,927.860168 827.827698,923.286316 828.186462,919.654907 
	C828.971985,911.702759 829.938965,903.766846 830.601685,895.805115 
	C830.809937,893.302429 831.835754,892.446838 834.182495,892.089905 
	C838.241882,891.472534 843.605225,892.500977 845.947266,889.468201 
	C848.039612,886.758972 847.285583,881.832397 847.729004,877.877625 
	C847.933044,876.058167 847.997375,874.223145 848.166016,871.939575 
z"/>
<path fill="#F8F8F8" opacity="1.000000" stroke="none" 
	d="
M512.942627,656.161743 
	C527.723083,664.844116 542.125671,673.448669 556.683289,681.782471 
	C559.435730,683.358215 559.666748,684.423767 558.082886,687.022766 
	C552.552612,696.097473 547.199219,705.282654 541.936035,714.515564 
	C540.651428,716.769104 539.388123,717.463989 536.799011,716.702026 
	C532.880249,715.548706 528.355225,712.373230 525.076782,714.189453 
	C521.917175,715.939880 520.442932,720.807922 518.336365,724.370178 
	C510.389221,737.809143 502.579620,751.330811 494.488373,764.682007 
	C492.857330,767.373352 493.151337,768.808594 495.297607,770.941406 
	C503.679382,779.270874 503.596191,779.348755 497.541870,789.643921 
	C493.668823,796.229797 489.726135,802.777039 485.986023,809.437805 
	C484.612427,811.884033 483.574280,812.710510 480.734650,811.008667 
	C459.506744,798.286743 438.180054,785.729126 416.831818,773.209534 
	C414.690735,771.953857 414.200317,771.055237 415.610535,768.750244 
	C421.244751,759.540833 426.687073,750.212646 432.100372,740.870544 
	C433.166443,739.030701 434.268127,738.027649 436.413055,738.984009 
	C436.710327,739.116516 437.064484,739.115845 437.386292,739.199829 
	C448.982025,742.227356 448.990143,742.232605 454.924225,732.162476 
	C463.019440,718.424805 471.046539,704.646545 479.238281,690.966797 
	C480.689880,688.542725 481.099701,687.042236 478.749908,684.722961 
	C470.174194,676.258728 470.284302,676.141296 476.477997,665.628113 
	C480.440186,658.902527 484.515076,652.240540 488.329926,645.432678 
	C489.639771,643.095093 490.687256,642.971375 492.884674,644.331177 
	C499.380157,648.350647 506.029327,652.121765 512.942627,656.161743 
z"/>
<path fill="#020202" opacity="1.000000" stroke="none" 
	d="
M1385.565430,816.447998 
	C1386.727905,815.328735 1385.869629,813.999512 1385.359497,812.602478 
	C1379.266724,795.915833 1373.117554,779.248962 1367.197144,762.501282 
	C1366.198853,759.676880 1364.950073,759.217346 1362.154175,759.553833 
	C1350.346313,760.975098 1350.333008,760.865173 1346.336914,749.885071 
	C1342.628418,739.695801 1342.629883,739.699341 1353.086548,735.891418 
	C1366.035767,731.175903 1379.019531,726.551575 1391.901245,721.658386 
	C1394.758423,720.572998 1395.987549,720.953491 1396.912720,723.876953 
	C1398.514526,728.938904 1400.286499,733.961426 1402.301636,738.871338 
	C1403.131226,740.892395 1402.769043,741.967102 1401.015869,742.885986 
	C1400.869019,742.963074 1400.719971,743.046997 1400.595703,743.155212 
	C1397.395752,745.942993 1391.751343,747.195984 1391.100098,751.201538 
	C1390.515747,754.794434 1393.413940,758.969788 1394.829224,762.868896 
	C1404.684570,790.021057 1414.502686,817.186951 1424.486694,844.291748 
	C1425.656250,847.466736 1425.822998,848.978577 1421.974976,850.152588 
	C1414.202637,852.523621 1406.562866,855.382141 1399.010620,858.395813 
	C1395.955322,859.615051 1393.999512,859.154175 1391.494019,857.082581 
	C1366.339722,836.285522 1341.063110,815.636169 1315.480469,794.901733 
	C1314.939941,794.816162 1314.740234,794.774048 1314.606689,795.030884 
	C1321.381958,814.065369 1328.132935,832.786011 1334.742920,851.556274 
	C1335.515625,853.750305 1336.706421,853.666016 1338.524292,853.520203 
	C1351.373535,852.489197 1351.376221,852.521912 1355.805054,864.671082 
	C1358.849243,873.021301 1358.848022,873.017944 1350.240234,876.141968 
	C1336.671753,881.066467 1323.077881,885.923340 1309.559814,890.982849 
	C1306.758667,892.031250 1305.612183,891.672119 1304.740234,888.662415 
	C1303.358154,883.891174 1301.558350,879.224487 1299.664551,874.625000 
	C1298.753784,872.413452 1298.877686,871.156372 1300.972656,869.662659 
	C1304.419556,867.204895 1309.991943,865.735779 1310.628418,861.836731 
	C1311.239624,858.092346 1308.312012,853.740295 1306.840820,849.691101 
	C1299.928955,830.666687 1292.887939,811.688293 1286.143799,792.604858 
	C1285.021729,789.430115 1283.554810,788.717590 1280.435425,788.974243 
	C1276.568848,789.292480 1271.891724,791.758789 1269.000366,789.060608 
	C1266.511963,786.738281 1266.105225,782.175476 1264.802124,778.594604 
	C1261.433228,769.336853 1261.438599,769.335022 1270.436401,766.038513 
	C1282.588989,761.586182 1294.792969,757.266235 1306.857178,752.586060 
	C1309.811768,751.439880 1311.580322,751.934875 1313.839355,753.904846 
	C1337.677734,774.693481 1361.607300,795.377441 1385.565430,816.447998 
z"/>
<path fill="#020202" opacity="1.000000" stroke="none" 
	d="
M1154.236084,791.168213 
	C1185.473145,784.928162 1216.303589,778.823059 1247.091553,772.510925 
	C1250.450684,771.822266 1251.621460,772.112854 1252.282593,775.815674 
	C1254.708496,789.401062 1257.514282,802.921021 1260.362915,816.426331 
	C1260.866577,818.814270 1260.509521,819.656738 1258.045288,820.046936 
	C1253.452271,820.774292 1248.888672,821.742737 1244.364014,822.825195 
	C1241.641357,823.476562 1240.147461,822.900146 1239.220581,820.039856 
	C1237.327759,814.198364 1234.937378,808.517883 1233.050903,802.674622 
	C1232.142456,799.860535 1230.841675,799.235657 1228.020752,799.912903 
	C1222.527832,801.231750 1216.951538,802.217896 1211.387573,803.219543 
	C1208.809570,803.683716 1208.055908,804.484253 1208.666138,807.448730 
	C1213.661255,831.715637 1218.407959,856.033936 1223.172119,880.347961 
	C1223.678955,882.934814 1224.475952,884.307312 1227.624268,884.197876 
	C1232.233765,884.037598 1238.148804,882.671509 1241.119019,885.483459 
	C1243.797607,888.019470 1243.402832,893.814758 1244.335449,898.178650 
	C1246.065918,906.278503 1246.051636,906.251038 1237.849854,907.888794 
	C1220.238403,911.405457 1202.613403,914.860779 1185.044189,918.578064 
	C1181.857910,919.252197 1180.580444,918.693237 1180.080322,915.458191 
	C1179.344482,910.697021 1178.435303,905.944214 1177.244019,901.278687 
	C1176.495972,898.348999 1177.564819,897.156067 1180.105225,896.056763 
	C1184.177979,894.294434 1189.868530,893.625549 1191.708496,890.040466 
	C1193.567871,886.417786 1190.729492,881.396790 1189.872437,877.016907 
	C1185.752808,855.964294 1181.355591,834.965576 1177.336182,813.894409 
	C1176.710205,810.613098 1175.559326,810.320068 1172.795898,810.944824 
	C1167.283203,812.191040 1161.729248,813.281250 1156.156494,814.224121 
	C1153.448975,814.682190 1152.766113,815.972473 1152.956421,818.589966 
	C1153.415161,824.902771 1153.498535,831.242310 1153.910889,837.559387 
	C1154.065063,839.921265 1153.614746,841.033630 1150.946289,841.385498 
	C1146.175415,842.014465 1141.417358,842.958313 1136.764893,844.189392 
	C1133.753052,844.986328 1133.189331,843.842102 1132.691040,841.232605 
	C1130.071533,827.512451 1127.344971,813.810852 1124.432861,800.150208 
	C1123.874756,797.532104 1124.736328,797.156677 1126.935059,796.736145 
	C1135.917358,795.018250 1144.859741,793.092285 1154.236084,791.168213 
z"/>
<path fill="#0B0B0B" opacity="1.000000" stroke="none" 
	d="
M1351.017822,835.975464 
	C1353.441650,837.975891 1355.576660,839.772644 1357.976929,841.792603 
	C1353.154175,843.266846 1348.479370,842.700745 1343.986206,843.507874 
	C1342.255859,843.818726 1341.584595,842.875610 1341.100708,841.526184 
	C1338.994141,835.652161 1336.890015,829.777283 1335.475464,823.263489 
	C1340.559937,827.432983 1345.644409,831.602417 1351.017822,835.975464 
z"/>
<path fill="#0B0B0B" opacity="1.000000" stroke="none" 
	d="
M1361.568359,774.464478 
	C1362.895630,778.166382 1364.044678,781.523560 1365.193726,784.880676 
	C1364.953247,785.029968 1364.712769,785.179321 1364.472290,785.328613 
	C1359.048218,780.620178 1353.624023,775.911804 1348.013550,771.041626 
	C1357.464233,768.200928 1359.480225,768.701355 1361.568359,774.464478 
z"/>
<path fill="#000000" opacity="1.000000" stroke="none" 
	d="
M1340.250000,763.750000 
	C1340.272949,763.222778 1340.564819,762.850708 1340.873657,763.414490 
	C1340.927124,763.512085 1340.633301,763.799988 1340.250000,763.750000 
z"/>
<path fill="#020202" opacity="1.000000" stroke="none" 
	d="
M637.833130,784.233032 
	C636.187500,783.717468 634.931213,783.276550 633.645386,782.953796 
	C631.525452,782.421692 630.776611,781.714661 631.650513,779.163635 
	C636.224182,765.812927 640.667542,752.411255 644.772339,738.910583 
	C645.838501,735.404114 647.539490,736.503357 649.512146,737.145996 
	C688.355408,749.800049 727.190063,762.480957 766.039246,775.116821 
	C768.392639,775.882263 769.494019,776.491455 768.433899,779.541138 
	C763.910522,792.553833 759.691162,805.675598 755.586121,818.827881 
	C754.645935,821.840332 753.512695,822.286987 750.682556,821.168091 
	C746.523254,819.523682 742.220276,818.168274 737.880615,817.080627 
	C735.025757,816.365112 734.700012,814.867676 735.136353,812.381470 
	C736.257874,805.990845 737.118713,799.553528 738.303101,793.175598 
	C738.692749,791.077026 738.211243,790.250488 736.172363,789.634094 
	C730.453430,787.905334 724.738281,786.116089 719.161072,783.985657 
	C716.008423,782.781372 715.351929,784.115601 714.508118,786.741089 
	C707.750061,807.768372 700.827881,828.742920 693.988708,849.744202 
	C690.383606,860.814636 690.278870,861.068115 700.581238,866.743652 
	C704.578918,868.945862 705.689270,871.015198 703.906128,875.210083 
	C702.223022,879.169556 701.108704,883.375732 699.830811,887.500305 
	C699.157471,889.673462 698.323730,890.781128 695.659302,889.892273 
	C676.598145,883.533813 657.506836,877.263977 638.375610,871.120056 
	C635.808411,870.295654 635.895874,869.283386 636.662415,867.156128 
	C638.350098,862.472778 639.814575,857.703430 641.206848,852.921692 
	C641.863464,850.666687 643.001465,849.738220 645.417664,849.959839 
	C648.396667,850.233154 651.506104,849.703918 654.382202,850.331970 
	C658.638184,851.261353 660.353271,849.926819 661.667297,845.766479 
	C668.918152,822.809326 676.442505,799.937439 684.057617,777.097839 
	C685.145691,773.834290 684.822876,772.505371 681.269531,771.616455 
	C675.968811,770.290405 670.766541,768.477966 665.655762,766.523743 
	C662.996460,765.507019 661.857544,766.163513 660.708130,768.605957 
	C658.163940,774.012451 655.176147,779.210632 652.645142,784.622803 
	C651.310242,787.477173 650.020752,788.867676 646.688110,787.227112 
	C644.034485,785.920776 641.047974,785.290833 637.833130,784.233032 
z"/>
<path fill="#020202" opacity="1.000000" stroke="none" 
	d="
M593.254639,770.239868 
	C586.613647,784.595825 580.216858,798.647766 573.600586,812.595642 
	C572.389587,815.148621 572.535156,816.516174 574.798767,818.355896 
	C577.963562,820.927917 583.116028,822.805481 583.471008,826.657654 
	C583.787598,830.094055 580.562134,833.864624 578.875122,837.476196 
	C574.891724,846.003357 574.885254,846.001526 566.354004,842.032227 
	C551.600647,835.167969 536.878601,828.235046 522.068054,821.496521 
	C519.256470,820.217224 518.294312,819.137817 519.947327,816.092712 
	C522.318420,811.724731 524.327942,807.140137 526.198303,802.528992 
	C527.168335,800.137512 528.618164,799.759155 530.844238,800.152954 
	C534.908447,800.872070 539.807861,803.666260 542.832947,801.590027 
	C545.929749,799.464661 547.029236,794.339478 548.846069,790.453979 
	C557.496277,771.954773 566.046082,753.408447 574.764221,734.941528 
	C575.941162,732.448486 576.211914,730.645630 573.554749,729.195129 
	C573.411316,729.116821 573.295288,728.987305 573.169006,728.878601 
	C570.271118,726.383179 565.401428,724.177002 564.981323,721.317261 
	C564.470093,717.836975 567.611145,713.762878 569.338562,710.022461 
	C573.527893,700.951538 573.572449,700.956909 582.563599,705.148315 
	C597.312073,712.023560 612.010071,719.009399 626.832214,725.721558 
	C629.689697,727.015503 629.973511,728.067444 628.559448,730.700134 
	C626.285034,734.934753 624.169800,739.301453 622.513611,743.805908 
	C621.308777,747.083069 619.464722,747.445984 616.444153,746.921204 
	C604.986511,744.930786 604.973633,745.001892 600.127808,755.443970 
	C597.891846,760.262146 595.658142,765.081360 593.254639,770.239868 
z"/>
<path fill="#000000" opacity="1.000000" stroke="none" 
	d="
M628.265625,754.203735 
	C629.589355,754.138428 629.806030,754.780762 629.255676,755.558228 
	C629.051086,755.847168 628.506165,756.141479 628.203979,756.068848 
	C627.292542,755.850098 627.702820,755.172180 628.265625,754.203735 
z"/>
<path fill="#020202" opacity="1.000000" stroke="none" 
	d="
M1068.904785,800.848511 
	C1073.992065,799.653687 1075.836792,801.464294 1077.231567,806.109009 
	C1086.636597,837.426575 1096.522461,868.599487 1106.016724,899.890869 
	C1107.090820,903.431030 1108.982056,904.467407 1112.199585,904.989014 
	C1123.758545,906.862854 1123.746338,906.936340 1124.605835,918.377625 
	C1125.376587,928.637634 1125.385620,928.786682 1115.165771,929.394592 
	C1099.208008,930.343872 1083.229248,930.953857 1067.276611,931.975098 
	C1063.712036,932.203369 1063.011963,930.845032 1063.108887,927.819641 
	C1063.199219,924.995239 1063.385010,922.071533 1062.800781,919.347595 
	C1061.246826,912.100220 1063.107910,907.282471 1071.002197,905.889893 
	C1073.434204,905.460876 1073.575806,903.853088 1072.784668,901.792297 
	C1071.714844,899.005615 1070.820312,896.151611 1069.853516,893.325500 
	C1066.916748,884.741028 1066.920654,884.795044 1058.006714,885.332031 
	C1049.695923,885.832764 1041.379639,886.273010 1033.060059,886.584595 
	C1030.542358,886.678955 1029.209595,887.263916 1028.806641,890.120605 
	C1028.182007,894.548645 1027.093140,898.931091 1025.910522,903.253357 
	C1025.173828,905.945190 1025.305298,907.671509 1028.524048,908.126526 
	C1034.537964,908.976562 1037.090454,912.225708 1036.598022,918.535461 
	C1036.227051,923.289246 1038.926025,929.431763 1036.356445,932.593323 
	C1033.693970,935.869141 1027.287476,933.782043 1022.528137,934.093384 
	C1011.893555,934.789246 1001.237122,935.166382 990.609985,935.949829 
	C987.310181,936.193054 986.081482,935.187012 986.282959,931.981934 
	C986.376465,930.494995 986.148376,928.989746 986.100708,927.491699 
	C985.963379,923.171387 984.495911,918.248657 986.083557,914.693542 
	C987.782959,910.888000 993.574585,911.482117 997.530884,910.052795 
	C999.451111,909.359131 999.981812,908.202209 1000.383240,906.488708 
	C1006.143616,881.902893 1011.921936,857.321106 1017.781006,832.758667 
	C1018.297546,830.593323 1017.592834,829.825623 1015.642273,829.254883 
	C1011.776733,828.124023 1006.400391,828.931763 1004.399109,825.577759 
	C1002.576233,822.522705 1003.543701,817.800293 1003.289551,813.812256 
	C1002.684509,804.320190 1002.678284,804.170288 1012.038818,803.659302 
	C1030.828369,802.633667 1049.627686,801.788818 1068.904785,800.848511 
z"/>
<path fill="#020202" opacity="1.000000" stroke="none" 
	d="
M1426.237427,703.179565 
	C1444.152588,693.290344 1461.812988,683.699829 1479.256104,673.729187 
	C1482.657227,671.784973 1484.270752,672.475037 1486.641235,675.007446 
	C1509.062866,698.959656 1531.632324,722.773438 1554.050659,746.728577 
	C1556.579102,749.430298 1558.687866,750.470581 1562.580566,749.260071 
	C1573.879395,745.746399 1573.953125,745.983521 1579.753418,756.397095 
	C1584.682861,765.247314 1584.675903,765.234680 1575.984863,770.040710 
	C1562.031860,777.756714 1548.051758,785.425232 1534.174805,793.276001 
	C1531.512573,794.782104 1530.150513,794.949097 1528.700562,791.804688 
	C1526.620117,787.292542 1524.108032,782.955688 1521.485840,778.726501 
	C1520.036499,776.388916 1519.775391,774.651855 1521.980713,772.710815 
	C1523.343018,771.511658 1524.313721,769.876892 1525.624512,768.607361 
	C1527.430054,766.858521 1527.516479,765.519653 1525.515259,763.721191 
	C1521.202393,759.845520 1517.648682,753.625916 1512.747070,752.349609 
	C1508.333618,751.200439 1503.264648,756.771667 1498.425903,759.266174 
	C1493.409424,761.852417 1488.595581,764.835999 1483.550171,767.360352 
	C1481.035034,768.618713 1480.221924,770.011475 1481.020020,772.775574 
	C1482.263062,777.080017 1483.292969,781.459412 1484.142700,785.859253 
	C1484.699951,788.744690 1486.001465,789.799744 1488.899536,789.079163 
	C1490.501465,788.680725 1492.237549,788.818237 1493.836426,788.411987 
	C1496.041382,787.851807 1497.143188,788.705933 1498.135864,790.617859 
	C1500.660400,795.479736 1503.244141,800.324829 1506.104736,804.992432 
	C1507.574585,807.390808 1506.832642,808.275879 1504.681152,809.454041 
	C1491.717163,816.553040 1478.797363,823.734436 1465.934814,831.015381 
	C1463.835205,832.203918 1462.908936,832.001343 1461.803833,829.819763 
	C1459.328857,824.934204 1456.690796,820.118286 1453.852173,815.435852 
	C1452.579224,813.335999 1453.012939,811.920532 1454.808960,810.878967 
	C1463.523926,805.824829 1462.982666,798.822632 1460.714966,790.142456 
	C1455.299805,769.414795 1450.810669,748.441284 1446.202881,727.510864 
	C1445.474365,724.201599 1444.329956,723.548950 1441.241333,724.209229 
	C1430.782715,726.445068 1430.766479,726.362854 1425.635742,717.174988 
	C1424.826050,715.725281 1423.989624,714.290588 1423.182739,712.839417 
	C1419.807495,706.769226 1419.809814,706.767944 1426.237427,703.179565 
z"/>
<path fill="#020202" opacity="1.000000" stroke="none" 
	d="
M849.153625,802.342834 
	C850.465271,792.677002 850.454590,792.784058 859.968750,793.731018 
	C887.793884,796.500427 915.625732,799.204956 943.464539,801.832458 
	C945.605042,802.034424 947.137817,802.718140 948.594727,804.251038 
	C955.018494,811.009644 961.476929,817.738220 968.063538,824.337158 
	C969.659485,825.936096 970.092163,827.500183 969.867004,829.640076 
	C968.752380,840.234192 967.703857,850.835938 966.735840,861.444397 
	C966.491638,864.121094 965.503723,865.929199 963.121155,867.451477 
	C956.539612,871.656433 949.982178,875.945496 943.774658,880.673157 
	C939.710266,883.768555 935.602905,884.278137 930.753662,883.713440 
	C918.191284,882.250244 905.577576,881.233276 893.004089,879.857788 
	C890.111511,879.541260 888.877014,879.910767 888.785339,883.252563 
	C888.648743,888.227600 888.021912,893.218079 887.199219,898.134338 
	C886.702820,901.100891 887.717712,902.469971 890.424377,903.030640 
	C890.586853,903.064331 890.747620,903.114563 890.902832,903.173767 
	C902.146362,907.462891 902.152344,907.463867 900.599731,919.372498 
	C900.194641,922.479004 900.793762,926.648682 899.023132,928.394775 
	C897.074219,930.316833 893.035461,928.281250 889.918030,927.993896 
	C873.510132,926.481567 857.121460,924.760742 840.714417,923.238525 
	C838.293274,923.013977 837.297058,922.567871 837.705627,919.771667 
	C838.450439,914.674133 838.778564,909.508484 839.104614,904.360107 
	C839.250977,902.048950 839.876526,900.493042 842.486084,900.486450 
	C842.647339,900.486023 842.806946,900.400635 842.969849,900.367065 
	C846.959656,899.544617 852.330444,900.683777 854.593689,897.621704 
	C856.645020,894.846375 855.861511,889.949402 856.257080,885.980835 
	C858.337097,865.112854 860.323853,844.235046 862.549011,823.382690 
	C862.828064,820.767456 861.988098,819.866455 859.823914,819.108582 
	C855.934753,817.746399 850.655396,817.192017 848.705811,814.388611 
	C846.938782,811.847717 848.834839,806.759460 849.153625,802.342834 
z"/>
<path fill="#020202" opacity="1.000000" stroke="none" 
	d="
M485.987732,775.042969 
	C491.817017,780.966370 491.819885,780.968079 487.804382,787.777405 
	C486.031799,790.783325 484.005280,793.668579 482.533600,796.814331 
	C481.134644,799.804626 479.710968,799.416077 477.321259,797.994812 
	C461.609070,788.649109 445.864014,779.355835 430.008942,770.255859 
	C427.284607,768.692139 426.797272,767.496277 428.740875,765.103027 
	C429.673035,763.955322 430.260193,762.531433 431.037506,761.253174 
	C433.362335,757.430298 434.873413,752.204529 438.276215,750.204590 
	C441.572632,748.267151 446.329926,751.718628 450.442810,752.797485 
	C452.508759,753.339417 453.708252,752.980408 454.867676,750.998718 
	C467.121643,730.054138 479.464386,709.161499 491.844177,688.291016 
	C492.867096,686.566589 492.777435,685.494995 491.299011,684.062866 
	C488.201965,681.062805 482.972748,677.834961 482.959106,674.681885 
	C482.941132,670.532715 487.060669,666.343262 489.470123,662.211304 
	C493.320984,655.607544 493.338226,655.633057 500.082184,659.591797 
	C514.559204,668.089966 528.987183,676.674805 543.571472,684.984924 
	C546.642578,686.734924 546.986328,687.996643 545.009094,690.855408 
	C542.274353,694.809448 539.917419,699.043030 537.632385,703.282837 
	C536.305176,705.745239 534.910950,706.366089 532.076172,705.569214 
	C520.441650,702.298401 520.412231,702.414795 514.266418,712.845459 
	C504.310150,729.743103 494.555817,746.765381 484.260803,763.454102 
	C481.311127,768.235718 480.728333,771.579895 485.987732,775.042969 
z"/>
<path fill="#F9F9F9" opacity="1.000000" stroke="none" 
	d="
M1314.789673,795.211914 
	C1314.543701,794.971924 1314.414429,794.613892 1314.285034,794.255981 
	C1314.521362,794.273804 1314.757690,794.291687 1315.066895,794.583984 
	C1315.139771,794.858337 1314.906250,795.093872 1314.789673,795.211914 
z"/>
<path fill="#F9F9F9" opacity="1.000000" stroke="none" 
	d="
M1385.639648,816.760620 
	C1385.881226,816.587097 1386.143311,816.368530 1386.405396,816.149902 
	C1386.426758,816.239075 1386.448120,816.328247 1386.469360,816.417480 
	C1386.327271,816.426025 1386.185181,816.434509 1385.833252,816.622131 
	C1385.623413,816.801270 1385.660034,816.715637 1385.639648,816.760620 
z"/>
<path fill="#F9F9F9" opacity="1.000000" stroke="none" 
	d="
M1045.296387,820.839905 
	C1050.591553,836.215393 1055.682617,851.260620 1060.948364,866.244507 
	C1062.066895,869.427185 1062.123779,870.868774 1058.002441,870.905029 
	C1049.552490,870.979248 1041.107056,871.573669 1032.077515,871.980042 
	C1035.298096,857.848999 1038.431519,844.057068 1041.590210,830.270813 
	C1042.403076,826.722717 1043.293091,823.192139 1044.157593,819.655945 
	C1044.194092,819.506653 1044.330444,819.381714 1044.420410,819.245422 
	C1044.665161,819.659546 1044.909912,820.073608 1045.296387,820.839905 
z"/>
<path fill="#F7F7F7" opacity="1.000000" stroke="none" 
	d="
M1474.876343,750.058167 
	C1471.087158,734.019653 1467.369141,718.369446 1463.739746,703.091858 
	C1476.160645,715.490662 1488.665527,727.973328 1501.482910,740.767883 
	C1493.577393,745.195557 1485.015015,749.991150 1476.153931,754.953979 
	C1475.710449,753.297180 1475.328979,751.871826 1474.876343,750.058167 
z"/>
<path fill="#F9F9F9" opacity="1.000000" stroke="none" 
	d="
M893.026245,840.005737 
	C893.348328,836.909180 893.675659,834.272522 893.928345,831.628723 
	C895.006958,820.341431 893.379944,822.730347 903.785339,823.297729 
	C910.907349,823.686096 918.003723,824.556396 925.108643,825.241333 
	C927.577759,825.479370 929.680664,826.162964 931.840515,827.822998 
	C936.541931,831.436523 937.942871,835.677307 936.410034,841.234680 
	C936.019470,842.650513 936.100098,844.200684 936.000183,845.691589 
	C935.498596,853.171936 929.654480,858.027466 922.209229,857.266235 
	C913.952576,856.421936 905.697876,855.372742 897.416626,855.025879 
	C892.453186,854.817993 891.126709,852.937134 892.106323,848.374573 
	C892.660706,845.792480 892.716614,843.103271 893.026245,840.005737 
z"/>
<path fill="#171717" opacity="1.000000" stroke="none" 
	d="
M1044.718262,858.823792 
	C1045.050903,856.822876 1045.216187,855.184143 1046.520874,853.400391 
	C1047.505737,856.341248 1048.380859,858.954651 1049.256104,861.568054 
	C1047.549683,860.741882 1043.377319,864.675720 1044.718262,858.823792 
z"/>
<path fill="#070707" opacity="1.000000" stroke="none" 
	d="
M1483.900635,735.056274 
	C1484.916138,736.337585 1486.832520,737.003784 1485.987305,738.424622 
	C1485.444702,739.336914 1482.845825,740.186157 1482.732056,740.016357 
	C1481.371826,737.985779 1480.848267,735.632690 1480.863525,733.147278 
	C1482.414307,732.787109 1482.748291,734.219421 1483.900635,735.056274 
z"/>
<path fill="#070707" opacity="1.000000" stroke="none" 
	d="
M926.989929,840.924072 
	C926.414795,847.962524 925.823547,848.440979 919.397461,847.716492 
	C914.455444,847.159363 909.516846,846.504211 904.557861,846.194824 
	C902.240906,846.050293 901.987000,845.151245 902.073425,843.130554 
	C902.525940,832.538391 902.469299,832.550171 913.185425,833.731934 
	C916.151184,834.058960 919.125000,834.415039 922.102783,834.505859 
	C926.148621,834.629333 927.911560,836.402161 926.989929,840.924072 
z"/>
</svg>